<svg width="57" height="57" viewBox="0 0 57 57" fill="none" xmlns="http://www.w3.org/2000/svg">
<rect width="57" height="57" rx="28.5" fill="#F6F6F6"/>
<path d="M22.1352 35.9793C22.971 35.1251 23.9631 34.4476 25.0551 33.9853C26.147 33.523 27.3173 33.2851 28.4992 33.2851C29.6812 33.2851 30.8515 33.523 31.9434 33.9853C33.0354 34.4476 34.0275 35.1251 34.8632 35.9793M17.8926 31.6431C19.2855 30.2196 20.9391 29.0903 22.759 28.3199C24.5788 27.5494 26.5294 27.1529 28.4992 27.1529C30.4691 27.1529 32.4196 27.5494 34.2395 28.3199C36.0594 29.0903 37.713 30.2196 39.1059 31.6431" stroke="#991D5B" stroke-width="1.5" stroke-linecap="round" stroke-linejoin="round"/>
<path d="M43.3491 27.3071C41.399 25.3141 39.084 23.7331 36.5361 22.6545C33.9883 21.5759 31.2575 21.0207 28.4997 21.0207C25.7419 21.0207 23.0112 21.5759 20.4633 22.6545C17.9155 23.7331 15.6004 25.3141 13.6504 27.3071" stroke="#991D5B" stroke-width="1.5" stroke-linecap="round" stroke-linejoin="round"/>
</svg>
