<svg width="57" height="57" viewBox="0 0 57 57" fill="none" xmlns="http://www.w3.org/2000/svg">
<rect width="57" height="57" rx="28.5" fill="#F6F6F6"/>
<path d="M26 36.5C25.8674 36.5 25.7402 36.5527 25.6464 36.6464C25.5527 36.7402 25.5 36.8674 25.5 37C25.5 37.1326 25.5527 37.2598 25.6464 37.3536C25.7402 37.4473 25.8674 37.5 26 37.5H31C31.1326 37.5 31.2598 37.4473 31.3536 37.3536C31.4473 37.2598 31.5 37.1326 31.5 37C31.5 36.8674 31.4473 36.7402 31.3536 36.6464C31.2598 36.5527 31.1326 36.5 31 36.5H26ZM22.75 14.5C21.888 14.5 21.0614 14.8424 20.4519 15.4519C19.8424 16.0614 19.5 16.888 19.5 17.75V39.25C19.5 40.112 19.8424 40.9386 20.4519 41.5481C21.0614 42.1576 21.888 42.5 22.75 42.5H34.25C35.112 42.5 35.9386 42.1576 36.5481 41.5481C37.1576 40.9386 37.5 40.112 37.5 39.25V17.75C37.5 16.888 37.1576 16.0614 36.5481 15.4519C35.9386 14.8424 35.112 14.5 34.25 14.5H22.75ZM20.5 17.75C20.5 17.1533 20.7371 16.581 21.159 16.159C21.581 15.7371 22.1533 15.5 22.75 15.5H34.25C34.8467 15.5 35.419 15.7371 35.841 16.159C36.2629 16.581 36.5 17.1533 36.5 17.75V39.25C36.5 39.8467 36.2629 40.419 35.841 40.841C35.419 41.2629 34.8467 41.5 34.25 41.5H22.75C22.1533 41.5 21.581 41.2629 21.159 40.841C20.7371 40.419 20.5 39.8467 20.5 39.25V17.75Z" fill="#991D5B"/>
</svg>
