<svg width="93" height="93" viewBox="0 0 93 93" fill="none" xmlns="http://www.w3.org/2000/svg">
<rect width="93" height="93" fill="#F6F6F6"/>
<rect width="88.35" height="88.35" transform="translate(2.79004 2.79004)" fill="#F6F6F6"/>
<rect width="88.35" height="88.35" transform="translate(2.79004 2.79004)" fill="#F6F6F6"/>
<path d="M7.20721 33.7124H4.26221V36.6574H7.20721V33.7124Z" fill="black"/>
<path d="M7.20721 36.6567H4.26221V39.6017H7.20721V36.6567Z" fill="black"/>
<path d="M7.20721 39.6025H4.26221V42.5475H7.20721V39.6025Z" fill="black"/>
<path d="M7.20721 42.5474H4.26221V45.4924H7.20721V42.5474Z" fill="black"/>
<path d="M7.20721 45.4927H4.26221V48.4377H7.20721V45.4927Z" fill="black"/>
<path d="M7.20721 48.4375H4.26221V51.3825H7.20721V48.4375Z" fill="black"/>
<path d="M7.20721 54.3276H4.26221V57.2726H7.20721V54.3276Z" fill="black"/>
<path d="M7.20721 60.2173H4.26221V63.1623H7.20721V60.2173Z" fill="black"/>
<path d="M10.152 30.7676H7.20703V33.7126H10.152V30.7676Z" fill="black"/>
<path d="M10.152 36.6567H7.20703V39.6017H10.152V36.6567Z" fill="black"/>
<path d="M10.152 42.5474H7.20703V45.4924H10.152V42.5474Z" fill="black"/>
<path d="M10.152 60.2173H7.20703V63.1623H10.152V60.2173Z" fill="black"/>
<path d="M10.152 63.1626H7.20703V66.1076H10.152V63.1626Z" fill="black"/>
<path d="M13.0973 27.8228H10.1523V30.7678H13.0973V27.8228Z" fill="black"/>
<path d="M13.0973 30.7676H10.1523V33.7126H13.0973V30.7676Z" fill="black"/>
<path d="M13.0973 45.4927H10.1523V48.4377H13.0973V45.4927Z" fill="black"/>
<path d="M13.0973 51.3823H10.1523V54.3273H13.0973V51.3823Z" fill="black"/>
<path d="M13.0973 54.3276H10.1523V57.2726H13.0973V54.3276Z" fill="black"/>
<path d="M13.0973 57.2725H10.1523V60.2175H13.0973V57.2725Z" fill="black"/>
<path d="M13.0973 63.1626H10.1523V66.1076H13.0973V63.1626Z" fill="black"/>
<path d="M16.0422 33.7124H13.0972V36.6574H16.0422V33.7124Z" fill="black"/>
<path d="M16.0422 42.5474H13.0972V45.4924H16.0422V42.5474Z" fill="black"/>
<path d="M16.0422 51.3823H13.0972V54.3273H16.0422V51.3823Z" fill="black"/>
<path d="M16.0422 57.2725H13.0972V60.2175H16.0422V57.2725Z" fill="black"/>
<path d="M16.0422 60.2173H13.0972V63.1623H16.0422V60.2173Z" fill="black"/>
<path d="M18.9875 27.8228H16.0425V30.7678H18.9875V27.8228Z" fill="black"/>
<path d="M18.9875 30.7676H16.0425V33.7126H18.9875V30.7676Z" fill="black"/>
<path d="M18.9875 48.4375H16.0425V51.3825H18.9875V48.4375Z" fill="black"/>
<path d="M18.9875 57.2725H16.0425V60.2175H18.9875V57.2725Z" fill="black"/>
<path d="M21.9323 27.8228H18.9873V30.7678H21.9323V27.8228Z" fill="black"/>
<path d="M21.9323 33.7124H18.9873V36.6574H21.9323V33.7124Z" fill="black"/>
<path d="M21.9323 36.6567H18.9873V39.6017H21.9323V36.6567Z" fill="black"/>
<path d="M21.9323 42.5474H18.9873V45.4924H21.9323V42.5474Z" fill="black"/>
<path d="M21.9323 45.4927H18.9873V48.4377H21.9323V45.4927Z" fill="black"/>
<path d="M21.9323 60.2173H18.9873V63.1623H21.9323V60.2173Z" fill="black"/>
<path d="M21.9323 63.1626H18.9873V66.1076H21.9323V63.1626Z" fill="black"/>
<path d="M24.8771 27.8228H21.9321V30.7678H24.8771V27.8228Z" fill="black"/>
<path d="M24.8771 33.7124H21.9321V36.6574H24.8771V33.7124Z" fill="black"/>
<path d="M24.8771 39.6025H21.9321V42.5475H24.8771V39.6025Z" fill="black"/>
<path d="M24.8771 45.4927H21.9321V48.4377H24.8771V45.4927Z" fill="black"/>
<path d="M24.8771 51.3823H21.9321V54.3273H24.8771V51.3823Z" fill="black"/>
<path d="M24.8771 57.2725H21.9321V60.2175H24.8771V57.2725Z" fill="black"/>
<path d="M24.8771 63.1626H21.9321V66.1076H24.8771V63.1626Z" fill="black"/>
<path d="M27.822 33.7124H24.877V36.6574H27.822V33.7124Z" fill="black"/>
<path d="M27.822 36.6567H24.877V39.6017H27.822V36.6567Z" fill="black"/>
<path d="M27.822 45.4927H24.877V48.4377H27.822V45.4927Z" fill="black"/>
<path d="M27.822 51.3823H24.877V54.3273H27.822V51.3823Z" fill="black"/>
<path d="M27.822 54.3276H24.877V57.2726H27.822V54.3276Z" fill="black"/>
<path d="M27.822 60.2173H24.877V63.1623H27.822V60.2173Z" fill="black"/>
<path d="M27.822 63.1626H24.877V66.1076H27.822V63.1626Z" fill="black"/>
<path d="M30.7673 7.20752H27.8223V10.1525H30.7673V7.20752Z" fill="black"/>
<path d="M30.7673 16.0425H27.8223V18.9875H30.7673V16.0425Z" fill="black"/>
<path d="M30.7673 21.9326H27.8223V24.8776H30.7673V21.9326Z" fill="black"/>
<path d="M30.7673 27.8228H27.8223V30.7678H30.7673V27.8228Z" fill="black"/>
<path d="M30.7673 33.7124H27.8223V36.6574H30.7673V33.7124Z" fill="black"/>
<path d="M30.7673 39.6025H27.8223V42.5475H30.7673V39.6025Z" fill="black"/>
<path d="M30.7673 42.5474H27.8223V45.4924H30.7673V42.5474Z" fill="black"/>
<path d="M30.7673 51.3823H27.8223V54.3273H30.7673V51.3823Z" fill="black"/>
<path d="M30.7673 57.2725H27.8223V60.2175H30.7673V57.2725Z" fill="black"/>
<path d="M30.7673 63.1626H27.8223V66.1076H30.7673V63.1626Z" fill="black"/>
<path d="M30.7673 66.1074H27.8223V69.0524H30.7673V66.1074Z" fill="black"/>
<path d="M30.7673 71.9976H27.8223V74.9426H30.7673V71.9976Z" fill="black"/>
<path d="M30.7673 74.9424H27.8223V77.8874H30.7673V74.9424Z" fill="black"/>
<path d="M30.7673 80.8325H27.8223V83.7775H30.7673V80.8325Z" fill="black"/>
<path d="M33.7121 7.20752H30.7671V10.1525H33.7121V7.20752Z" fill="black"/>
<path d="M33.7121 10.1523H30.7671V13.0973H33.7121V10.1523Z" fill="black"/>
<path d="M33.7121 13.0977H30.7671V16.0427H33.7121V13.0977Z" fill="black"/>
<path d="M33.7121 16.0425H30.7671V18.9875H33.7121V16.0425Z" fill="black"/>
<path d="M33.7121 30.7676H30.7671V33.7126H33.7121V30.7676Z" fill="black"/>
<path d="M33.7121 33.7124H30.7671V36.6574H33.7121V33.7124Z" fill="black"/>
<path d="M33.7121 39.6025H30.7671V42.5475H33.7121V39.6025Z" fill="black"/>
<path d="M33.7121 45.4927H30.7671V48.4377H33.7121V45.4927Z" fill="black"/>
<path d="M33.7121 51.3823H30.7671V54.3273H33.7121V51.3823Z" fill="black"/>
<path d="M33.7121 57.2725H30.7671V60.2175H33.7121V57.2725Z" fill="black"/>
<path d="M33.7121 60.2173H30.7671V63.1623H33.7121V60.2173Z" fill="black"/>
<path d="M33.7121 66.1074H30.7671V69.0524H33.7121V66.1074Z" fill="black"/>
<path d="M33.7121 69.0527H30.7671V71.9977H33.7121V69.0527Z" fill="black"/>
<path d="M33.7121 74.9424H30.7671V77.8874H33.7121V74.9424Z" fill="black"/>
<path d="M33.7121 83.7773H30.7671V86.7223H33.7121V83.7773Z" fill="black"/>
<path d="M33.7121 86.7227H30.7671V89.6677H33.7121V86.7227Z" fill="black"/>
<path d="M36.6574 4.2627H33.7124V7.2077H36.6574V4.2627Z" fill="black"/>
<path d="M36.6574 13.0977H33.7124V16.0427H36.6574V13.0977Z" fill="black"/>
<path d="M36.6574 16.0425H33.7124V18.9875H36.6574V16.0425Z" fill="black"/>
<path d="M36.6574 21.9326H33.7124V24.8776H36.6574V21.9326Z" fill="black"/>
<path d="M36.6574 24.8774H33.7124V27.8224H36.6574V24.8774Z" fill="black"/>
<path d="M36.6574 27.8228H33.7124V30.7678H36.6574V27.8228Z" fill="black"/>
<path d="M36.6574 39.6025H33.7124V42.5475H36.6574V39.6025Z" fill="black"/>
<path d="M36.6574 42.5474H33.7124V45.4924H36.6574V42.5474Z" fill="black"/>
<path d="M36.6574 45.4927H33.7124V48.4377H36.6574V45.4927Z" fill="black"/>
<path d="M36.6574 48.4375H33.7124V51.3825H36.6574V48.4375Z" fill="black"/>
<path d="M36.6574 54.3276H33.7124V57.2726H36.6574V54.3276Z" fill="black"/>
<path d="M36.6574 57.2725H33.7124V60.2175H36.6574V57.2725Z" fill="black"/>
<path d="M36.6574 63.1626H33.7124V66.1076H36.6574V63.1626Z" fill="black"/>
<path d="M36.6574 66.1074H33.7124V69.0524H36.6574V66.1074Z" fill="black"/>
<path d="M36.6574 71.9976H33.7124V74.9426H36.6574V71.9976Z" fill="black"/>
<path d="M36.6574 77.8877H33.7124V80.8327H36.6574V77.8877Z" fill="black"/>
<path d="M36.6574 80.8325H33.7124V83.7775H36.6574V80.8325Z" fill="black"/>
<path d="M36.6574 86.7227H33.7124V89.6677H36.6574V86.7227Z" fill="black"/>
<path d="M39.6022 4.2627H36.6572V7.2077H39.6022V4.2627Z" fill="black"/>
<path d="M39.6022 10.1523H36.6572V13.0973H39.6022V10.1523Z" fill="black"/>
<path d="M39.6022 13.0977H36.6572V16.0427H39.6022V13.0977Z" fill="black"/>
<path d="M39.6022 16.0425H36.6572V18.9875H39.6022V16.0425Z" fill="black"/>
<path d="M39.6022 45.4927H36.6572V48.4377H39.6022V45.4927Z" fill="black"/>
<path d="M39.6022 48.4375H36.6572V51.3825H39.6022V48.4375Z" fill="black"/>
<path d="M39.6022 51.3823H36.6572V54.3273H39.6022V51.3823Z" fill="black"/>
<path d="M39.6022 54.3276H36.6572V57.2726H39.6022V54.3276Z" fill="black"/>
<path d="M39.6022 57.2725H36.6572V60.2175H39.6022V57.2725Z" fill="black"/>
<path d="M39.6022 63.1626H36.6572V66.1076H39.6022V63.1626Z" fill="black"/>
<path d="M39.6022 66.1074H36.6572V69.0524H39.6022V66.1074Z" fill="black"/>
<path d="M39.6022 71.9976H36.6572V74.9426H39.6022V71.9976Z" fill="black"/>
<path d="M39.6022 77.8877H36.6572V80.8327H39.6022V77.8877Z" fill="black"/>
<path d="M39.6022 83.7773H36.6572V86.7223H39.6022V83.7773Z" fill="black"/>
<path d="M39.6022 86.7227H36.6572V89.6677H39.6022V86.7227Z" fill="black"/>
<path d="M42.5471 7.20752H39.6021V10.1525H42.5471V7.20752Z" fill="black"/>
<path d="M42.5471 10.1523H39.6021V13.0973H42.5471V10.1523Z" fill="black"/>
<path d="M42.5471 13.0977H39.6021V16.0427H42.5471V13.0977Z" fill="black"/>
<path d="M42.5471 16.0425H39.6021V18.9875H42.5471V16.0425Z" fill="black"/>
<path d="M42.5471 21.9326H39.6021V24.8776H42.5471V21.9326Z" fill="black"/>
<path d="M42.5471 24.8774H39.6021V27.8224H42.5471V24.8774Z" fill="black"/>
<path d="M42.5471 27.8228H39.6021V30.7678H42.5471V27.8228Z" fill="black"/>
<path d="M42.5471 30.7676H39.6021V33.7126H42.5471V30.7676Z" fill="black"/>
<path d="M42.5471 39.6025H39.6021V42.5475H42.5471V39.6025Z" fill="black"/>
<path d="M42.5471 42.5474H39.6021V45.4924H42.5471V42.5474Z" fill="black"/>
<path d="M42.5471 45.4927H39.6021V48.4377H42.5471V45.4927Z" fill="black"/>
<path d="M42.5471 51.3823H39.6021V54.3273H42.5471V51.3823Z" fill="black"/>
<path d="M42.5471 54.3276H39.6021V57.2726H42.5471V54.3276Z" fill="black"/>
<path d="M42.5471 57.2725H39.6021V60.2175H42.5471V57.2725Z" fill="black"/>
<path d="M42.5471 60.2173H39.6021V63.1623H42.5471V60.2173Z" fill="black"/>
<path d="M42.5471 63.1626H39.6021V66.1076H42.5471V63.1626Z" fill="black"/>
<path d="M42.5471 71.9976H39.6021V74.9426H42.5471V71.9976Z" fill="black"/>
<path d="M42.5471 77.8877H39.6021V80.8327H42.5471V77.8877Z" fill="black"/>
<path d="M42.5471 86.7227H39.6021V89.6677H42.5471V86.7227Z" fill="black"/>
<path d="M45.4924 7.20752H42.5474V10.1525H45.4924V7.20752Z" fill="black"/>
<path d="M45.4924 13.0977H42.5474V16.0427H45.4924V13.0977Z" fill="black"/>
<path d="M45.4924 18.9873H42.5474V21.9323H45.4924V18.9873Z" fill="black"/>
<path d="M45.4924 33.7124H42.5474V36.6574H45.4924V33.7124Z" fill="black"/>
<path d="M45.4924 36.6567H42.5474V39.6017H45.4924V36.6567Z" fill="black"/>
<path d="M45.4924 42.5474H42.5474V45.4924H45.4924V42.5474Z" fill="black"/>
<path d="M45.4924 48.4375H42.5474V51.3825H45.4924V48.4375Z" fill="black"/>
<path d="M45.4924 51.3823H42.5474V54.3273H45.4924V51.3823Z" fill="black"/>
<path d="M45.4924 54.3276H42.5474V57.2726H45.4924V54.3276Z" fill="black"/>
<path d="M45.4924 57.2725H42.5474V60.2175H45.4924V57.2725Z" fill="black"/>
<path d="M45.4924 63.1626H42.5474V66.1076H45.4924V63.1626Z" fill="black"/>
<path d="M45.4924 69.0527H42.5474V71.9977H45.4924V69.0527Z" fill="black"/>
<path d="M45.4924 74.9424H42.5474V77.8874H45.4924V74.9424Z" fill="black"/>
<path d="M45.4924 80.8325H42.5474V83.7775H45.4924V80.8325Z" fill="black"/>
<path d="M45.4924 86.7227H42.5474V89.6677H45.4924V86.7227Z" fill="black"/>
<path d="M48.4372 13.0977H45.4922V16.0427H48.4372V13.0977Z" fill="black"/>
<path d="M48.4372 18.9873H45.4922V21.9323H48.4372V18.9873Z" fill="black"/>
<path d="M48.4372 21.9326H45.4922V24.8776H48.4372V21.9326Z" fill="black"/>
<path d="M48.4372 27.8228H45.4922V30.7678H48.4372V27.8228Z" fill="black"/>
<path d="M48.4372 36.6567H45.4922V39.6017H48.4372V36.6567Z" fill="black"/>
<path d="M48.4372 42.5474H45.4922V45.4924H48.4372V42.5474Z" fill="black"/>
<path d="M48.4372 48.4375H45.4922V51.3825H48.4372V48.4375Z" fill="black"/>
<path d="M48.4372 51.3823H45.4922V54.3273H48.4372V51.3823Z" fill="black"/>
<path d="M48.4372 57.2725H45.4922V60.2175H48.4372V57.2725Z" fill="black"/>
<path d="M48.4372 63.1626H45.4922V66.1076H48.4372V63.1626Z" fill="black"/>
<path d="M48.4372 69.0527H45.4922V71.9977H48.4372V69.0527Z" fill="black"/>
<path d="M48.4372 74.9424H45.4922V77.8874H48.4372V74.9424Z" fill="black"/>
<path d="M48.4372 86.7227H45.4922V89.6677H48.4372V86.7227Z" fill="black"/>
<path d="M51.3825 4.2627H48.4375V7.2077H51.3825V4.2627Z" fill="black"/>
<path d="M51.3825 10.1523H48.4375V13.0973H51.3825V10.1523Z" fill="black"/>
<path d="M51.3825 13.0977H48.4375V16.0427H51.3825V13.0977Z" fill="black"/>
<path d="M51.3825 18.9873H48.4375V21.9323H51.3825V18.9873Z" fill="black"/>
<path d="M51.3825 24.8774H48.4375V27.8224H51.3825V24.8774Z" fill="black"/>
<path d="M51.3825 27.8228H48.4375V30.7678H51.3825V27.8228Z" fill="black"/>
<path d="M51.3825 30.7676H48.4375V33.7126H51.3825V30.7676Z" fill="black"/>
<path d="M51.3825 36.6567H48.4375V39.6017H51.3825V36.6567Z" fill="black"/>
<path d="M51.3825 39.6025H48.4375V42.5475H51.3825V39.6025Z" fill="black"/>
<path d="M51.3825 42.5474H48.4375V45.4924H51.3825V42.5474Z" fill="black"/>
<path d="M51.3825 69.0527H48.4375V71.9977H51.3825V69.0527Z" fill="black"/>
<path d="M51.3825 71.9976H48.4375V74.9426H51.3825V71.9976Z" fill="black"/>
<path d="M51.3825 77.8877H48.4375V80.8327H51.3825V77.8877Z" fill="black"/>
<path d="M54.3273 7.20752H51.3823V10.1525H54.3273V7.20752Z" fill="black"/>
<path d="M54.3273 10.1523H51.3823V13.0973H54.3273V10.1523Z" fill="black"/>
<path d="M54.3273 21.9326H51.3823V24.8776H54.3273V21.9326Z" fill="black"/>
<path d="M54.3273 30.7676H51.3823V33.7126H54.3273V30.7676Z" fill="black"/>
<path d="M54.3273 33.7124H51.3823V36.6574H54.3273V33.7124Z" fill="black"/>
<path d="M54.3273 42.5474H51.3823V45.4924H54.3273V42.5474Z" fill="black"/>
<path d="M54.3273 45.4927H51.3823V48.4377H54.3273V45.4927Z" fill="black"/>
<path d="M54.3273 51.3823H51.3823V54.3273H54.3273V51.3823Z" fill="black"/>
<path d="M54.3273 60.2173H51.3823V63.1623H54.3273V60.2173Z" fill="black"/>
<path d="M54.3273 63.1626H51.3823V66.1076H54.3273V63.1626Z" fill="black"/>
<path d="M54.3273 71.9976H51.3823V74.9426H54.3273V71.9976Z" fill="black"/>
<path d="M57.2721 4.2627H54.3271V7.2077H57.2721V4.2627Z" fill="black"/>
<path d="M57.2721 7.20752H54.3271V10.1525H57.2721V7.20752Z" fill="black"/>
<path d="M57.2721 13.0977H54.3271V16.0427H57.2721V13.0977Z" fill="black"/>
<path d="M57.2721 24.8774H54.3271V27.8224H57.2721V24.8774Z" fill="black"/>
<path d="M57.2721 30.7676H54.3271V33.7126H57.2721V30.7676Z" fill="black"/>
<path d="M57.2721 36.6567H54.3271V39.6017H57.2721V36.6567Z" fill="black"/>
<path d="M57.2721 42.5474H54.3271V45.4924H57.2721V42.5474Z" fill="black"/>
<path d="M57.2721 54.3276H54.3271V57.2726H57.2721V54.3276Z" fill="black"/>
<path d="M57.2721 57.2725H54.3271V60.2175H57.2721V57.2725Z" fill="black"/>
<path d="M57.2721 66.1074H54.3271V69.0524H57.2721V66.1074Z" fill="black"/>
<path d="M57.2721 69.0527H54.3271V71.9977H57.2721V69.0527Z" fill="black"/>
<path d="M57.2721 74.9424H54.3271V77.8874H57.2721V74.9424Z" fill="black"/>
<path d="M57.2721 86.7227H54.3271V89.6677H57.2721V86.7227Z" fill="black"/>
<path d="M60.217 13.0977H57.272V16.0427H60.217V13.0977Z" fill="black"/>
<path d="M60.217 18.9873H57.272V21.9323H60.217V18.9873Z" fill="black"/>
<path d="M60.217 21.9326H57.272V24.8776H60.217V21.9326Z" fill="black"/>
<path d="M60.217 24.8774H57.272V27.8224H60.217V24.8774Z" fill="black"/>
<path d="M60.217 33.7124H57.272V36.6574H60.217V33.7124Z" fill="black"/>
<path d="M60.217 36.6567H57.272V39.6017H60.217V36.6567Z" fill="black"/>
<path d="M60.217 45.4927H57.272V48.4377H60.217V45.4927Z" fill="black"/>
<path d="M60.217 48.4375H57.272V51.3825H60.217V48.4375Z" fill="black"/>
<path d="M60.217 54.3276H57.272V57.2726H60.217V54.3276Z" fill="black"/>
<path d="M60.217 57.2725H57.272V60.2175H60.217V57.2725Z" fill="black"/>
<path d="M60.217 63.1626H57.272V66.1076H60.217V63.1626Z" fill="black"/>
<path d="M60.217 71.9976H57.272V74.9426H60.217V71.9976Z" fill="black"/>
<path d="M60.217 77.8877H57.272V80.8327H60.217V77.8877Z" fill="black"/>
<path d="M60.217 86.7227H57.272V89.6677H60.217V86.7227Z" fill="black"/>
<path d="M63.1623 10.1523H60.2173V13.0973H63.1623V10.1523Z" fill="black"/>
<path d="M63.1623 13.0977H60.2173V16.0427H63.1623V13.0977Z" fill="black"/>
<path d="M63.1623 16.0425H60.2173V18.9875H63.1623V16.0425Z" fill="black"/>
<path d="M63.1623 27.8228H60.2173V30.7678H63.1623V27.8228Z" fill="black"/>
<path d="M63.1623 48.4375H60.2173V51.3825H63.1623V48.4375Z" fill="black"/>
<path d="M63.1623 51.3823H60.2173V54.3273H63.1623V51.3823Z" fill="black"/>
<path d="M63.1623 54.3276H60.2173V57.2726H63.1623V54.3276Z" fill="black"/>
<path d="M63.1623 57.2725H60.2173V60.2175H63.1623V57.2725Z" fill="black"/>
<path d="M63.1623 83.7773H60.2173V86.7223H63.1623V83.7773Z" fill="black"/>
<path d="M63.1623 86.7227H60.2173V89.6677H63.1623V86.7227Z" fill="black"/>
<path d="M66.1071 4.2627H63.1621V7.2077H66.1071V4.2627Z" fill="black"/>
<path d="M66.1071 7.20752H63.1621V10.1525H66.1071V7.20752Z" fill="black"/>
<path d="M66.1071 13.0977H63.1621V16.0427H66.1071V13.0977Z" fill="black"/>
<path d="M66.1071 18.9873H63.1621V21.9323H66.1071V18.9873Z" fill="black"/>
<path d="M66.1071 21.9326H63.1621V24.8776H66.1071V21.9326Z" fill="black"/>
<path d="M66.1071 24.8774H63.1621V27.8224H66.1071V24.8774Z" fill="black"/>
<path d="M66.1071 27.8228H63.1621V30.7678H66.1071V27.8228Z" fill="black"/>
<path d="M66.1071 39.6025H63.1621V42.5475H66.1071V39.6025Z" fill="black"/>
<path d="M66.1071 45.4927H63.1621V48.4377H66.1071V45.4927Z" fill="black"/>
<path d="M66.1071 54.3276H63.1621V57.2726H66.1071V54.3276Z" fill="black"/>
<path d="M66.1071 63.1626H63.1621V66.1076H66.1071V63.1626Z" fill="black"/>
<path d="M66.1071 66.1074H63.1621V69.0524H66.1071V66.1074Z" fill="black"/>
<path d="M66.1071 69.0527H63.1621V71.9977H66.1071V69.0527Z" fill="black"/>
<path d="M66.1071 71.9976H63.1621V74.9426H66.1071V71.9976Z" fill="black"/>
<path d="M66.1071 74.9424H63.1621V77.8874H66.1071V74.9424Z" fill="black"/>
<path d="M66.1071 77.8877H63.1621V80.8327H66.1071V77.8877Z" fill="black"/>
<path d="M66.1071 83.7773H63.1621V86.7223H66.1071V83.7773Z" fill="black"/>
<path d="M66.1071 86.7227H63.1621V89.6677H66.1071V86.7227Z" fill="black"/>
<path d="M69.0524 27.8228H66.1074V30.7678H69.0524V27.8228Z" fill="black"/>
<path d="M69.0524 30.7676H66.1074V33.7126H69.0524V30.7676Z" fill="black"/>
<path d="M69.0524 33.7124H66.1074V36.6574H69.0524V33.7124Z" fill="black"/>
<path d="M69.0524 39.6025H66.1074V42.5475H69.0524V39.6025Z" fill="black"/>
<path d="M69.0524 42.5474H66.1074V45.4924H69.0524V42.5474Z" fill="black"/>
<path d="M69.0524 48.4375H66.1074V51.3825H69.0524V48.4375Z" fill="black"/>
<path d="M69.0524 63.1626H66.1074V66.1076H69.0524V63.1626Z" fill="black"/>
<path d="M69.0524 74.9424H66.1074V77.8874H69.0524V74.9424Z" fill="black"/>
<path d="M69.0524 80.8325H66.1074V83.7775H69.0524V80.8325Z" fill="black"/>
<path d="M69.0524 86.7227H66.1074V89.6677H69.0524V86.7227Z" fill="black"/>
<path d="M71.9972 33.7124H69.0522V36.6574H71.9972V33.7124Z" fill="black"/>
<path d="M71.9972 36.6567H69.0522V39.6017H71.9972V36.6567Z" fill="black"/>
<path d="M71.9972 42.5474H69.0522V45.4924H71.9972V42.5474Z" fill="black"/>
<path d="M71.9972 45.4927H69.0522V48.4377H71.9972V45.4927Z" fill="black"/>
<path d="M71.9972 48.4375H69.0522V51.3825H71.9972V48.4375Z" fill="black"/>
<path d="M71.9972 51.3823H69.0522V54.3273H71.9972V51.3823Z" fill="black"/>
<path d="M71.9972 54.3276H69.0522V57.2726H71.9972V54.3276Z" fill="black"/>
<path d="M71.9972 60.2173H69.0522V63.1623H71.9972V60.2173Z" fill="black"/>
<path d="M71.9972 63.1626H69.0522V66.1076H71.9972V63.1626Z" fill="black"/>
<path d="M71.9972 69.0527H69.0522V71.9977H71.9972V69.0527Z" fill="black"/>
<path d="M71.9972 74.9424H69.0522V77.8874H71.9972V74.9424Z" fill="black"/>
<path d="M71.9972 86.7227H69.0522V89.6677H71.9972V86.7227Z" fill="black"/>
<path d="M74.9421 33.7124H71.9971V36.6574H74.9421V33.7124Z" fill="black"/>
<path d="M74.9421 36.6567H71.9971V39.6017H74.9421V36.6567Z" fill="black"/>
<path d="M74.9421 39.6025H71.9971V42.5475H74.9421V39.6025Z" fill="black"/>
<path d="M74.9421 45.4927H71.9971V48.4377H74.9421V45.4927Z" fill="black"/>
<path d="M74.9421 51.3823H71.9971V54.3273H74.9421V51.3823Z" fill="black"/>
<path d="M74.9421 54.3276H71.9971V57.2726H74.9421V54.3276Z" fill="black"/>
<path d="M74.9421 57.2725H71.9971V60.2175H74.9421V57.2725Z" fill="black"/>
<path d="M74.9421 60.2173H71.9971V63.1623H74.9421V60.2173Z" fill="black"/>
<path d="M74.9421 63.1626H71.9971V66.1076H74.9421V63.1626Z" fill="black"/>
<path d="M74.9421 74.9424H71.9971V77.8874H74.9421V74.9424Z" fill="black"/>
<path d="M74.9421 77.8877H71.9971V80.8327H74.9421V77.8877Z" fill="black"/>
<path d="M74.9421 83.7773H71.9971V86.7223H74.9421V83.7773Z" fill="black"/>
<path d="M77.8874 27.8228H74.9424V30.7678H77.8874V27.8228Z" fill="black"/>
<path d="M77.8874 36.6567H74.9424V39.6017H77.8874V36.6567Z" fill="black"/>
<path d="M77.8874 39.6025H74.9424V42.5475H77.8874V39.6025Z" fill="black"/>
<path d="M77.8874 42.5474H74.9424V45.4924H77.8874V42.5474Z" fill="black"/>
<path d="M77.8874 45.4927H74.9424V48.4377H77.8874V45.4927Z" fill="black"/>
<path d="M77.8874 57.2725H74.9424V60.2175H77.8874V57.2725Z" fill="black"/>
<path d="M77.8874 60.2173H74.9424V63.1623H77.8874V60.2173Z" fill="black"/>
<path d="M77.8874 63.1626H74.9424V66.1076H77.8874V63.1626Z" fill="black"/>
<path d="M77.8874 66.1074H74.9424V69.0524H77.8874V66.1074Z" fill="black"/>
<path d="M77.8874 69.0527H74.9424V71.9977H77.8874V69.0527Z" fill="black"/>
<path d="M77.8874 71.9976H74.9424V74.9426H77.8874V71.9976Z" fill="black"/>
<path d="M77.8874 74.9424H74.9424V77.8874H77.8874V74.9424Z" fill="black"/>
<path d="M77.8874 83.7773H74.9424V86.7223H77.8874V83.7773Z" fill="black"/>
<path d="M77.8874 86.7227H74.9424V89.6677H77.8874V86.7227Z" fill="black"/>
<path d="M80.8322 30.7676H77.8872V33.7126H80.8322V30.7676Z" fill="black"/>
<path d="M80.8322 36.6567H77.8872V39.6017H80.8322V36.6567Z" fill="black"/>
<path d="M80.8322 39.6025H77.8872V42.5475H80.8322V39.6025Z" fill="black"/>
<path d="M80.8322 42.5474H77.8872V45.4924H80.8322V42.5474Z" fill="black"/>
<path d="M80.8322 45.4927H77.8872V48.4377H80.8322V45.4927Z" fill="black"/>
<path d="M80.8322 51.3823H77.8872V54.3273H80.8322V51.3823Z" fill="black"/>
<path d="M80.8322 71.9976H77.8872V74.9426H80.8322V71.9976Z" fill="black"/>
<path d="M80.8322 83.7773H77.8872V86.7223H80.8322V83.7773Z" fill="black"/>
<path d="M83.7775 30.7676H80.8325V33.7126H83.7775V30.7676Z" fill="black"/>
<path d="M83.7775 51.3823H80.8325V54.3273H83.7775V51.3823Z" fill="black"/>
<path d="M83.7775 54.3276H80.8325V57.2726H83.7775V54.3276Z" fill="black"/>
<path d="M83.7775 60.2173H80.8325V63.1623H83.7775V60.2173Z" fill="black"/>
<path d="M83.7775 63.1626H80.8325V66.1076H83.7775V63.1626Z" fill="black"/>
<path d="M83.7775 66.1074H80.8325V69.0524H83.7775V66.1074Z" fill="black"/>
<path d="M83.7775 77.8877H80.8325V80.8327H83.7775V77.8877Z" fill="black"/>
<path d="M83.7775 80.8325H80.8325V83.7775H83.7775V80.8325Z" fill="black"/>
<path d="M83.7775 83.7773H80.8325V86.7223H83.7775V83.7773Z" fill="black"/>
<path d="M83.7775 86.7227H80.8325V89.6677H83.7775V86.7227Z" fill="black"/>
<path d="M86.7223 27.8228H83.7773V30.7678H86.7223V27.8228Z" fill="black"/>
<path d="M86.7223 39.6025H83.7773V42.5475H86.7223V39.6025Z" fill="black"/>
<path d="M86.7223 42.5474H83.7773V45.4924H86.7223V42.5474Z" fill="black"/>
<path d="M86.7223 54.3276H83.7773V57.2726H86.7223V54.3276Z" fill="black"/>
<path d="M86.7223 57.2725H83.7773V60.2175H86.7223V57.2725Z" fill="black"/>
<path d="M86.7223 60.2173H83.7773V63.1623H86.7223V60.2173Z" fill="black"/>
<path d="M86.7223 63.1626H83.7773V66.1076H86.7223V63.1626Z" fill="black"/>
<path d="M86.7223 66.1074H83.7773V69.0524H86.7223V66.1074Z" fill="black"/>
<path d="M86.7223 69.0527H83.7773V71.9977H86.7223V69.0527Z" fill="black"/>
<path d="M86.7223 71.9976H83.7773V74.9426H86.7223V71.9976Z" fill="black"/>
<path d="M86.7223 77.8877H83.7773V80.8327H86.7223V77.8877Z" fill="black"/>
<path d="M86.7223 83.7773H83.7773V86.7223H86.7223V83.7773Z" fill="black"/>
<path d="M86.7223 86.7227H83.7773V89.6677H86.7223V86.7227Z" fill="black"/>
<path d="M89.6672 36.6567H86.7222V39.6017H89.6672V36.6567Z" fill="black"/>
<path d="M89.6672 39.6025H86.7222V42.5475H89.6672V39.6025Z" fill="black"/>
<path d="M89.6672 45.4927H86.7222V48.4377H89.6672V45.4927Z" fill="black"/>
<path d="M89.6672 48.4375H86.7222V51.3825H89.6672V48.4375Z" fill="black"/>
<path d="M89.6672 51.3823H86.7222V54.3273H89.6672V51.3823Z" fill="black"/>
<path d="M89.6672 54.3276H86.7222V57.2726H89.6672V54.3276Z" fill="black"/>
<path d="M89.6672 60.2173H86.7222V63.1623H89.6672V60.2173Z" fill="black"/>
<path d="M89.6672 63.1626H86.7222V66.1076H89.6672V63.1626Z" fill="black"/>
<path d="M89.6672 74.9424H86.7222V77.8874H89.6672V74.9424Z" fill="black"/>
<path d="M89.6672 83.7773H86.7222V86.7223H89.6672V83.7773Z" fill="black"/>
<path d="M7.20721 4.2627H4.26221V7.2077H7.20721V4.2627Z" fill="black"/>
<path d="M7.20721 7.20752H4.26221V10.1525H7.20721V7.20752Z" fill="black"/>
<path d="M7.20721 10.1523H4.26221V13.0973H7.20721V10.1523Z" fill="black"/>
<path d="M7.20721 13.0977H4.26221V16.0427H7.20721V13.0977Z" fill="black"/>
<path d="M7.20721 16.0425H4.26221V18.9875H7.20721V16.0425Z" fill="black"/>
<path d="M7.20721 18.9873H4.26221V21.9323H7.20721V18.9873Z" fill="black"/>
<path d="M7.20721 21.9326H4.26221V24.8776H7.20721V21.9326Z" fill="black"/>
<path d="M10.152 4.2627H7.20703V7.2077H10.152V4.2627Z" fill="black"/>
<path d="M10.152 21.9326H7.20703V24.8776H10.152V21.9326Z" fill="black"/>
<path d="M13.0973 4.2627H10.1523V7.2077H13.0973V4.2627Z" fill="black"/>
<path d="M13.0973 21.9326H10.1523V24.8776H13.0973V21.9326Z" fill="black"/>
<path d="M16.0422 4.2627H13.0972V7.2077H16.0422V4.2627Z" fill="black"/>
<path d="M16.0422 21.9326H13.0972V24.8776H16.0422V21.9326Z" fill="black"/>
<path d="M18.9875 4.2627H16.0425V7.2077H18.9875V4.2627Z" fill="black"/>
<path d="M18.9875 21.9326H16.0425V24.8776H18.9875V21.9326Z" fill="black"/>
<path d="M21.9323 4.2627H18.9873V7.2077H21.9323V4.2627Z" fill="black"/>
<path d="M21.9323 21.9326H18.9873V24.8776H21.9323V21.9326Z" fill="black"/>
<path d="M24.8771 4.2627H21.9321V7.2077H24.8771V4.2627Z" fill="black"/>
<path d="M24.8771 7.20752H21.9321V10.1525H24.8771V7.20752Z" fill="black"/>
<path d="M24.8771 10.1523H21.9321V13.0973H24.8771V10.1523Z" fill="black"/>
<path d="M24.8771 13.0977H21.9321V16.0427H24.8771V13.0977Z" fill="black"/>
<path d="M24.8771 16.0425H21.9321V18.9875H24.8771V16.0425Z" fill="black"/>
<path d="M24.8771 18.9873H21.9321V21.9323H24.8771V18.9873Z" fill="black"/>
<path d="M24.8771 21.9326H21.9321V24.8776H24.8771V21.9326Z" fill="black"/>
<path d="M13.0973 10.1523H10.1523V13.0973H13.0973V10.1523Z" fill="black"/>
<path d="M13.0973 13.0977H10.1523V16.0427H13.0973V13.0977Z" fill="black"/>
<path d="M13.0973 16.0425H10.1523V18.9875H13.0973V16.0425Z" fill="black"/>
<path d="M16.0422 10.1523H13.0972V13.0973H16.0422V10.1523Z" fill="black"/>
<path d="M16.0422 13.0977H13.0972V16.0427H16.0422V13.0977Z" fill="black"/>
<path d="M16.0422 16.0425H13.0972V18.9875H16.0422V16.0425Z" fill="black"/>
<path d="M18.9875 10.1523H16.0425V13.0973H18.9875V10.1523Z" fill="black"/>
<path d="M18.9875 13.0977H16.0425V16.0427H18.9875V13.0977Z" fill="black"/>
<path d="M18.9875 16.0425H16.0425V18.9875H18.9875V16.0425Z" fill="black"/>
<path d="M71.9972 4.2627H69.0522V7.2077H71.9972V4.2627Z" fill="black"/>
<path d="M71.9972 7.20752H69.0522V10.1525H71.9972V7.20752Z" fill="black"/>
<path d="M71.9972 10.1523H69.0522V13.0973H71.9972V10.1523Z" fill="black"/>
<path d="M71.9972 13.0977H69.0522V16.0427H71.9972V13.0977Z" fill="black"/>
<path d="M71.9972 16.0425H69.0522V18.9875H71.9972V16.0425Z" fill="black"/>
<path d="M71.9972 18.9873H69.0522V21.9323H71.9972V18.9873Z" fill="black"/>
<path d="M71.9972 21.9326H69.0522V24.8776H71.9972V21.9326Z" fill="black"/>
<path d="M74.9421 4.2627H71.9971V7.2077H74.9421V4.2627Z" fill="black"/>
<path d="M74.9421 21.9326H71.9971V24.8776H74.9421V21.9326Z" fill="black"/>
<path d="M77.8874 4.2627H74.9424V7.2077H77.8874V4.2627Z" fill="black"/>
<path d="M77.8874 21.9326H74.9424V24.8776H77.8874V21.9326Z" fill="black"/>
<path d="M80.8322 4.2627H77.8872V7.2077H80.8322V4.2627Z" fill="black"/>
<path d="M80.8322 21.9326H77.8872V24.8776H80.8322V21.9326Z" fill="black"/>
<path d="M83.7775 4.2627H80.8325V7.2077H83.7775V4.2627Z" fill="black"/>
<path d="M83.7775 21.9326H80.8325V24.8776H83.7775V21.9326Z" fill="black"/>
<path d="M86.7223 4.2627H83.7773V7.2077H86.7223V4.2627Z" fill="black"/>
<path d="M86.7223 21.9326H83.7773V24.8776H86.7223V21.9326Z" fill="black"/>
<path d="M89.6672 4.2627H86.7222V7.2077H89.6672V4.2627Z" fill="black"/>
<path d="M89.6672 7.20752H86.7222V10.1525H89.6672V7.20752Z" fill="black"/>
<path d="M89.6672 10.1523H86.7222V13.0973H89.6672V10.1523Z" fill="black"/>
<path d="M89.6672 13.0977H86.7222V16.0427H89.6672V13.0977Z" fill="black"/>
<path d="M89.6672 16.0425H86.7222V18.9875H89.6672V16.0425Z" fill="black"/>
<path d="M89.6672 18.9873H86.7222V21.9323H89.6672V18.9873Z" fill="black"/>
<path d="M89.6672 21.9326H86.7222V24.8776H89.6672V21.9326Z" fill="black"/>
<path d="M77.8874 10.1523H74.9424V13.0973H77.8874V10.1523Z" fill="black"/>
<path d="M77.8874 13.0977H74.9424V16.0427H77.8874V13.0977Z" fill="black"/>
<path d="M77.8874 16.0425H74.9424V18.9875H77.8874V16.0425Z" fill="black"/>
<path d="M80.8322 10.1523H77.8872V13.0973H80.8322V10.1523Z" fill="black"/>
<path d="M80.8322 13.0977H77.8872V16.0427H80.8322V13.0977Z" fill="black"/>
<path d="M80.8322 16.0425H77.8872V18.9875H80.8322V16.0425Z" fill="black"/>
<path d="M83.7775 10.1523H80.8325V13.0973H83.7775V10.1523Z" fill="black"/>
<path d="M83.7775 13.0977H80.8325V16.0427H83.7775V13.0977Z" fill="black"/>
<path d="M83.7775 16.0425H80.8325V18.9875H83.7775V16.0425Z" fill="black"/>
<path d="M7.20721 69.0527H4.26221V71.9977H7.20721V69.0527Z" fill="black"/>
<path d="M7.20721 71.9976H4.26221V74.9426H7.20721V71.9976Z" fill="black"/>
<path d="M7.20721 74.9424H4.26221V77.8874H7.20721V74.9424Z" fill="black"/>
<path d="M7.20721 77.8877H4.26221V80.8327H7.20721V77.8877Z" fill="black"/>
<path d="M7.20721 80.8325H4.26221V83.7775H7.20721V80.8325Z" fill="black"/>
<path d="M7.20721 83.7773H4.26221V86.7223H7.20721V83.7773Z" fill="black"/>
<path d="M7.20721 86.7227H4.26221V89.6677H7.20721V86.7227Z" fill="black"/>
<path d="M10.152 69.0527H7.20703V71.9977H10.152V69.0527Z" fill="black"/>
<path d="M10.152 86.7227H7.20703V89.6677H10.152V86.7227Z" fill="black"/>
<path d="M13.0973 69.0527H10.1523V71.9977H13.0973V69.0527Z" fill="black"/>
<path d="M13.0973 86.7227H10.1523V89.6677H13.0973V86.7227Z" fill="black"/>
<path d="M16.0422 69.0527H13.0972V71.9977H16.0422V69.0527Z" fill="black"/>
<path d="M16.0422 86.7227H13.0972V89.6677H16.0422V86.7227Z" fill="black"/>
<path d="M18.9875 69.0527H16.0425V71.9977H18.9875V69.0527Z" fill="black"/>
<path d="M18.9875 86.7227H16.0425V89.6677H18.9875V86.7227Z" fill="black"/>
<path d="M21.9323 69.0527H18.9873V71.9977H21.9323V69.0527Z" fill="black"/>
<path d="M21.9323 86.7227H18.9873V89.6677H21.9323V86.7227Z" fill="black"/>
<path d="M24.8771 69.0527H21.9321V71.9977H24.8771V69.0527Z" fill="black"/>
<path d="M24.8771 71.9976H21.9321V74.9426H24.8771V71.9976Z" fill="black"/>
<path d="M24.8771 74.9424H21.9321V77.8874H24.8771V74.9424Z" fill="black"/>
<path d="M24.8771 77.8877H21.9321V80.8327H24.8771V77.8877Z" fill="black"/>
<path d="M24.8771 80.8325H21.9321V83.7775H24.8771V80.8325Z" fill="black"/>
<path d="M24.8771 83.7773H21.9321V86.7223H24.8771V83.7773Z" fill="black"/>
<path d="M24.8771 86.7227H21.9321V89.6677H24.8771V86.7227Z" fill="black"/>
<path d="M13.0973 74.9424H10.1523V77.8874H13.0973V74.9424Z" fill="black"/>
<path d="M13.0973 77.8877H10.1523V80.8327H13.0973V77.8877Z" fill="black"/>
<path d="M13.0973 80.8325H10.1523V83.7775H13.0973V80.8325Z" fill="black"/>
<path d="M16.0422 74.9424H13.0972V77.8874H16.0422V74.9424Z" fill="black"/>
<path d="M16.0422 77.8877H13.0972V80.8327H16.0422V77.8877Z" fill="black"/>
<path d="M16.0422 80.8325H13.0972V83.7775H16.0422V80.8325Z" fill="black"/>
<path d="M18.9875 74.9424H16.0425V77.8874H18.9875V74.9424Z" fill="black"/>
<path d="M18.9875 77.8877H16.0425V80.8327H18.9875V77.8877Z" fill="black"/>
<path d="M18.9875 80.8325H16.0425V83.7775H18.9875V80.8325Z" fill="black"/>
</svg>
