<svg width="124" height="39" viewBox="0 0 124 39" fill="none" xmlns="http://www.w3.org/2000/svg">
<path d="M78.5836 10.746C77.1691 10.1415 75.5796 9.83008 73.8626 9.83008C72.4955 9.83008 71.2049 10.0096 70.0165 10.343C69.3129 10.5445 68.6348 10.8156 67.9786 11.1747L68.5656 13.7502C69.2072 13.4095 69.8488 13.1531 70.4977 12.9809C71.595 12.6841 72.685 12.5376 73.735 12.5376C75.9442 12.5376 77.6503 13.0578 78.8096 14.0653C79.7501 14.9043 80.2933 15.9595 80.4464 17.2711C80.1147 17.1795 79.7356 17.0696 79.2871 16.9597C77.9747 16.6556 76.2358 16.509 74.1105 16.509H72.9658C71.4601 16.5493 70.0785 16.8351 68.8572 17.3553C67.6068 17.8829 66.6079 18.6193 65.8678 19.5462C65.1096 20.5025 64.7231 21.6565 64.7231 22.9865C64.7231 24.3164 65.1023 25.5034 65.8423 26.4707C66.5751 27.4269 67.5813 28.156 68.8317 28.6616C70.0602 29.1415 71.4492 29.3906 72.9803 29.3906C74.3802 29.3906 75.6744 29.1745 76.8191 28.7385C77.9529 28.3098 78.9518 27.7676 79.7611 27.1228C80.0235 26.9213 80.2642 26.7125 80.4865 26.4926V29.0096H83.3374V18.4435C83.3374 16.487 82.9035 14.8494 82.0468 13.5854C81.1901 12.3214 80.0236 11.3652 78.5799 10.7423L78.5836 10.746ZM78.507 24.8037C77.1618 25.9907 75.4338 26.6355 73.3923 26.7125H72.984C71.3836 26.7125 70.1113 26.3571 69.1853 25.65C68.2885 24.9759 67.8656 24.0819 67.8656 22.9169C67.8656 21.8471 68.3067 20.9824 69.2327 20.2863C70.1915 19.5572 71.9997 19.1835 74.6172 19.1835C74.7266 19.1835 75.5286 19.1982 77.0342 19.2128C78.3174 19.2348 79.4767 19.5169 80.4865 20.0445C80.4246 22.1182 79.7757 23.6716 78.5106 24.8037H78.507Z" fill="black"/>
<path d="M100.085 19.1139C99.0098 18.7329 97.5589 18.4398 95.7725 18.2493L92.4843 17.8719C90.8474 17.6741 89.699 17.3627 89.0684 16.9413C88.5179 16.575 88.2627 16.084 88.2627 15.3953C88.2627 14.4867 88.6564 13.8382 89.5058 13.3509C90.4354 12.816 91.8171 12.5449 93.6071 12.5449C94.8721 12.5449 96.0059 12.7207 96.9719 13.0615C97.9161 13.3985 98.6853 13.8675 99.2577 14.461C99.8082 15.0326 100.122 15.67 100.213 16.4101L100.275 16.923H103.122L103.089 16.3112C103.02 15.0069 102.55 13.8492 101.693 12.871C100.862 11.9221 99.7353 11.171 98.3463 10.6324C96.9792 10.1049 95.408 9.8374 93.6727 9.8374C92.0905 9.8374 90.6688 10.0499 89.4439 10.4676C88.1789 10.8999 87.1763 11.5374 86.4654 12.3727C85.729 13.2337 85.3535 14.2852 85.3535 15.4942C85.3535 16.4724 85.6051 17.3334 86.1009 18.0478C86.5894 18.7585 87.3695 19.3374 88.4085 19.7661C89.3965 20.1727 90.6797 20.4695 92.2327 20.6417L95.5538 21.0191C97.5151 21.2389 98.864 21.5576 99.5639 21.957C100.155 22.294 100.432 22.785 100.432 23.4957C100.432 24.3933 99.9321 25.1188 98.9041 25.7159C97.7885 26.3644 96.2829 26.6942 94.431 26.6942C93.1915 26.6942 92.0577 26.5 91.0661 26.1189C90.0928 25.7452 89.2944 25.2213 88.7002 24.5692C88.1205 23.928 87.7815 23.2136 87.6721 22.3783L87.6065 21.8727H84.7666L84.7958 22.4845C84.865 23.8658 85.3353 25.1004 86.1957 26.1483C87.0378 27.1778 88.1934 27.9874 89.6261 28.5553C91.037 29.1159 92.6519 29.4016 94.431 29.4016C96.21 29.4016 97.6719 29.1635 98.9843 28.6909C100.326 28.2073 101.39 27.5222 102.152 26.6539C102.943 25.7526 103.348 24.6864 103.348 23.4957C103.348 22.4113 103.089 21.5027 102.579 20.7919C102.072 20.0885 101.234 19.5279 100.093 19.1213L100.085 19.1139Z" fill="black"/>
<path d="M123.945 18.7766C123.876 17.8607 123.705 16.9997 123.428 16.19C123.249 15.6551 123.027 15.1422 122.764 14.6513C121.944 13.1455 120.788 11.9511 119.319 11.1048C117.912 10.2915 116.275 9.86281 114.452 9.84083C114.383 9.8335 114.306 9.8335 114.237 9.8335C112.269 9.8335 110.508 10.2438 109.009 11.0682C107.504 11.8925 106.304 13.0466 105.448 14.5157C104.792 15.6332 104.383 16.9008 104.234 18.2967C104.212 18.4909 104.194 18.6997 104.179 18.9012C104.165 19.1357 104.157 19.3665 104.157 19.6083C104.157 19.8501 104.165 20.0882 104.179 20.3227C104.186 20.5242 104.208 20.7257 104.234 20.9272C104.394 22.3158 104.828 23.5834 105.517 24.7008C106.414 26.1773 107.679 27.3387 109.287 28.1631C110.785 28.9324 112.524 29.3428 114.456 29.3831C114.573 29.3904 114.689 29.3904 114.802 29.3904C114.893 29.3904 114.981 29.3831 115.057 29.3611H115.065C116.64 29.2585 118.076 28.8408 119.323 28.1191C120.792 27.2728 121.948 26.0784 122.768 24.5726C122.837 24.4407 122.906 24.3162 122.968 24.1769C123.114 23.8802 123.245 23.5797 123.355 23.261H120.241C120.201 23.3379 120.165 23.4076 120.125 23.4845C119.986 23.7263 119.84 23.9571 119.669 24.1769C119.159 24.8437 118.517 25.3896 117.77 25.8C116.836 26.3056 115.732 26.584 114.503 26.6133C113.052 26.584 111.769 26.2872 110.694 25.745C109.549 25.1625 108.656 24.3491 108.029 23.316C107.69 22.7554 107.442 22.1362 107.278 21.4621C107.201 21.1361 107.147 20.8027 107.106 20.4546H124V19.8721C124 19.7878 124 19.6999 123.993 19.6229C123.993 19.3372 123.978 19.0551 123.945 18.7839V18.7766ZM107.267 17.7654C107.413 17.0913 107.646 16.4612 107.97 15.886C108.543 14.8601 109.359 14.0468 110.42 13.4716C111.485 12.889 112.768 12.6033 114.237 12.6033C114.321 12.6033 114.416 12.6033 114.5 12.6106C115.728 12.6399 116.833 12.9147 117.766 13.4239C118.761 13.9662 119.56 14.7429 120.121 15.7357C120.46 16.3476 120.715 17.0254 120.879 17.7618H107.271L107.267 17.7654Z" fill="black"/>
<path d="M51.3986 26.0235C50.983 26.4522 50.6003 26.6683 50.2503 26.6683C49.7144 26.6683 49.4446 26.2873 49.4446 25.5289C49.4446 24.9647 49.6196 24.1294 49.9696 23.0266L52.6272 14.9701C53.0027 13.8673 53.1922 12.9001 53.1922 12.0648C53.1922 11.2294 53.0173 10.6542 52.6673 10.2622C52.3173 9.8702 51.8616 9.67236 51.3002 9.67236C50.3888 9.67236 49.4483 10.145 48.4822 11.0902C47.5161 12.0355 46.7615 12.8598 45.3652 14.6477H45.7261C46.5865 13.4973 46.8235 13.2225 47.2937 12.7426C47.764 12.2663 48.2124 12.0245 48.6426 12.0245C49.0983 12.0245 49.328 12.3542 49.328 13.0173C49.328 13.4826 49.2186 14.0468 49.0071 14.71L46.3094 23.0596C45.8537 24.4811 45.6241 25.6828 45.6241 26.6647C45.6241 27.5476 45.7991 28.1961 46.149 28.6138C46.499 29.0314 46.9401 29.2403 47.4797 29.2403C48.3655 29.2403 49.2915 28.7566 50.2576 27.7894C51.2236 26.8222 52.3647 25.4666 53.6808 23.7264H53.3162C52.4558 24.8291 51.8179 25.5949 51.4059 26.0235H51.3986Z" fill="black"/>
<path d="M62.3133 24.6054C61.7993 25.2429 61.3946 25.7228 61.0993 26.0196C60.6874 26.4483 60.3046 26.6681 59.9583 26.6681C59.4187 26.6681 59.1526 26.2871 59.1526 25.5287C59.1526 24.9645 59.3203 24.1291 59.6739 23.0227L62.3279 14.9699C62.707 13.8634 62.8893 12.8999 62.8893 12.0609C62.8893 11.2219 62.7107 10.654 62.368 10.2656C62.0216 9.86996 61.5623 9.67578 61.0009 9.67578C60.0822 9.67578 59.1489 10.1447 58.1865 11.09C57.5595 11.7055 56.8522 12.4895 56.0393 13.4494C55.6055 13.9733 55.5654 14.0136 55.0659 14.6474H55.4268C55.8461 14.0906 55.7914 14.1528 56.1122 13.7572C56.4658 13.3285 56.7575 12.9878 56.9981 12.746C57.4647 12.2624 57.9167 12.0279 58.3506 12.0279C58.7844 12.0279 59.0359 12.3576 59.0359 13.0208C59.0359 13.4824 58.9229 14.0466 58.7151 14.7097L56.0138 23.0593C55.5617 24.4808 55.3284 25.6789 55.3284 26.6644C55.3284 27.5474 55.507 28.1922 55.8497 28.6135C56.2033 29.0275 56.6444 29.2363 57.184 29.2363C58.0699 29.2363 58.9922 28.7527 59.9583 27.7819C60.6728 27.0711 61.4857 26.1332 62.4044 24.9864C62.7179 24.5908 63.0388 24.1694 63.3778 23.7261H63.0169C62.769 24.0485 62.5357 24.3416 62.3169 24.6091L62.3133 24.6054Z" fill="black"/>
<path d="M40.0208 24.0523C40.0937 23.7445 40.1885 23.3965 40.3088 23.0264L44.0491 11.101L47.29 1.09545L47.6582 0H46.9109C44.585 1.26764 42.4232 1.90879 40.4109 1.90879L40.2432 2.38141C41.0306 2.38141 41.6175 2.40706 42.0222 2.46202C42.1097 2.46934 42.1899 2.48766 42.2628 2.50232C42.5362 2.56826 42.7294 2.67085 42.8424 2.8174C42.9956 3.00425 43.0357 3.27169 42.9628 3.61608C42.8826 3.95681 42.755 4.43309 42.5617 5.0486L40.7025 10.4379C40.6697 10.4049 40.6369 10.383 40.5968 10.3573L40.5895 10.372C39.5104 9.90302 38.537 9.66854 37.6439 9.66854H37.6293C35.9487 9.67587 34.0822 10.3793 32.0552 11.7862C32.048 11.7862 32.048 11.7935 32.048 11.7935C31.9933 11.8338 31.9277 11.8741 31.8693 11.9144C29.7622 13.4092 27.9832 15.2777 26.5213 17.5235C25.0558 19.7621 24.3267 21.9383 24.3267 24.0486C24.3267 25.1074 24.5126 26.0197 24.8881 26.8037C25.2672 27.5951 25.7484 28.1959 26.3354 28.6063C26.9296 29.0276 27.542 29.2364 28.1873 29.2364C28.7597 29.2364 29.3065 29.0679 29.8351 28.7125C30.0356 28.5916 30.2288 28.4377 30.422 28.2582C31.1366 27.6097 31.8474 26.7378 32.5547 25.646C33.2692 24.5542 34.2426 22.9312 35.4748 20.7696L36.7617 18.564L38.7813 15.1458H39.1422L37.4142 20.5131L36.6013 23.0521C36.4153 23.6273 36.2622 24.1768 36.1601 24.7008C36.1601 24.7008 36.0654 25.276 36.0471 25.3492V25.3566C35.9924 25.7852 35.9596 26.1955 35.9596 26.5839C35.9596 27.4888 36.1383 28.1593 36.481 28.588C36.8346 29.0166 37.2757 29.2364 37.8079 29.2364C38.6683 29.2364 39.587 28.7418 40.5676 27.7636C41.315 27.0199 42.1534 26.0673 43.094 24.8949C43.382 24.5249 43.6955 24.1255 44.0127 23.7152H43.6518C42.7659 24.8473 42.117 25.6167 41.6977 26.0343C41.2858 26.4483 40.903 26.6572 40.5567 26.6572C40.0427 26.6572 39.7911 26.2945 39.7911 25.5581C39.7911 25.2027 39.8567 24.7411 39.9916 24.1658C39.9989 24.1255 40.0062 24.0852 40.0244 24.0449L40.0208 24.0523ZM36.3606 18.3918C35.0738 20.5754 34.0931 22.1911 33.4077 23.2572C32.7151 24.3234 32.1136 25.1257 31.574 25.6497C31.0345 26.1736 30.5278 26.441 30.0465 26.441C29.507 26.441 29.0404 26.1736 28.6539 25.6497C28.2675 25.1257 28.067 24.2977 28.067 23.1693C28.067 21.2385 28.5081 19.2565 29.3794 17.2524C30.247 15.241 31.3334 13.5814 32.6203 12.2808C33.9072 10.9875 35.1394 10.3317 36.3205 10.3317C36.9148 10.3317 37.4616 10.4855 37.9793 10.7933C38.4714 11.0937 39.113 11.57 39.9114 12.2148C39.9369 12.2295 39.9661 12.2551 39.9916 12.2808L39.9041 12.4273L36.3643 18.3918H36.3606Z" fill="black"/>
<path d="M49.0728 4.31946H49.0764H50.3451C52.033 4.31946 52.9808 5.56146 52.4631 7.0929L52.0731 8.24696C52.0585 8.29825 52.0876 8.33856 52.1423 8.33856C52.197 8.33856 52.2553 8.29825 52.2736 8.24696L52.6636 7.0929C53.1813 5.56146 54.9676 4.31946 56.6555 4.31946H60.2756C61.7958 4.31946 62.6269 5.4369 62.1311 6.81812L61.6171 8.24696C61.5989 8.29825 61.6281 8.33856 61.6827 8.33856C61.7374 8.33856 61.7958 8.29825 61.814 8.24696L62.328 6.81812C62.8238 5.4369 64.457 4.31946 65.9809 4.31946H67.5448C67.5995 4.31946 67.6615 4.27916 67.6797 4.22787C67.6979 4.17658 67.6687 4.13628 67.6141 4.13628H66.0392C64.5226 4.13628 63.6914 3.01884 64.1872 1.64495L64.7013 0.216105C64.7195 0.164813 64.6903 0.124512 64.632 0.124512C64.5737 0.124512 64.5153 0.164813 64.4971 0.216105L63.9831 1.64495C63.4873 3.02251 61.8577 4.13628 60.3412 4.13628H56.7029C55.0187 4.13628 54.0708 2.89794 54.5885 1.37017L54.9786 0.216105C54.9968 0.164813 54.964 0.124512 54.9093 0.124512C54.8546 0.124512 54.7926 0.164813 54.7781 0.216105L54.388 1.37017C53.8703 2.89794 52.0876 4.13628 50.4034 4.13628H49.1238C49.0691 4.13994 49.0144 4.18024 48.9998 4.22787C48.9853 4.2755 49.0144 4.3158 49.0655 4.31946H49.0728Z" fill="black"/>
<path d="M4.60069 27.7709C5.06733 27.302 5.57406 26.7598 6.1136 26.1296C6.43441 25.7486 6.77345 25.3382 7.12707 24.9023C7.28018 24.7081 7.43329 24.5066 7.5937 24.3051C7.73952 24.1182 7.8817 23.924 8.03481 23.7225H7.68119C7.01405 24.5725 6.4818 25.2173 6.08079 25.6643C5.9532 25.8109 5.83289 25.9391 5.72717 26.0453C5.72717 26.0453 5.72474 26.0502 5.71988 26.06C5.52667 26.2615 5.33345 26.4154 5.14024 26.5143C4.94702 26.6132 4.7611 26.6682 4.58611 26.6682C4.45852 26.6682 4.33821 26.6425 4.23978 26.6022C3.95178 26.463 3.80596 26.1186 3.80596 25.5691C3.80596 25.0195 3.98459 24.1549 4.32728 23.0301L10.4081 4.0594L11.3267 1.09911L11.6986 0.00732422H10.9513C8.62539 1.27497 6.46357 1.91612 4.45123 1.91612L4.28353 2.38508C5.07097 2.38508 5.65791 2.41072 6.06256 2.46568C6.15006 2.47301 6.23026 2.49132 6.30317 2.50598C6.31046 2.50598 6.31775 2.51331 6.32869 2.51331C6.58752 2.57926 6.7698 2.68184 6.88281 2.82106C7.03593 3.00791 7.07603 3.27536 7.00312 3.61975C6.92291 3.96047 6.79532 4.43675 6.60211 5.05226L1.45458 20.5241L0.860352 22.3926L0.641618 23.0631C0.641618 23.0631 0.634326 23.0887 0.634326 23.1034C0.368201 23.9937 0.182277 24.785 0.0802013 25.4811C0.0546824 25.6606 0.0328099 25.8292 0.0255188 25.9977C0.0109366 26.1992 0 26.4007 0 26.5949C0 27.4998 0.178632 28.1703 0.521315 28.5989C0.568707 28.6539 0.608807 28.7052 0.659845 28.7528C0.707237 28.7931 0.75463 28.8407 0.805668 28.8811C0.95149 29.002 1.11189 29.0899 1.27959 29.1558C1.45822 29.2108 1.65144 29.2438 1.85194 29.2438C2.07068 29.2438 2.28576 29.2108 2.51179 29.1558C3.17893 28.969 3.87158 28.5074 4.61163 27.7746L4.60069 27.7709Z" fill="black"/>
<path d="M24.8663 15.75C25.4313 14.4127 25.7667 13.2586 25.8724 12.2914C25.9636 11.4817 25.8724 10.8479 25.61 10.3826C25.5516 10.2764 25.4824 10.1848 25.3985 10.1042C25.136 9.83308 24.7751 9.69752 24.3085 9.69752C23.769 9.69752 23.3023 9.84773 22.9268 10.1518C22.5441 10.4522 22.3253 10.8553 22.2743 11.3389C22.2378 11.6649 22.3253 12.2218 22.5513 13.0315C22.5513 13.0461 22.5586 13.0535 22.5659 13.0681C22.7555 13.603 22.8904 14.1086 22.9779 14.5849C23.0617 15.0758 23.0763 15.6254 22.9997 16.2299C22.956 16.6586 22.8102 17.2411 22.5878 17.9592C22.1285 19.1755 21.0785 21.0111 19.4307 23.4804C19.2412 23.7588 19.0553 24.041 18.8657 24.3121C18.1512 25.3452 17.422 26.3601 16.6638 27.3566C16.6273 27.4152 16.5799 27.4702 16.5362 27.5288C16.5362 27.5068 16.5435 27.4922 16.5435 27.4702C16.5872 27.2137 16.6273 26.9719 16.6565 26.7521C16.7622 26.0706 16.8351 25.5211 16.8898 25.1071C17.2288 22.2238 17.309 19.6115 17.145 17.2777C16.9736 14.9366 16.5435 13.1011 15.8545 11.7565C15.5373 11.1227 15.1545 10.6391 14.728 10.313C14.3379 9.921 13.8713 9.71584 13.339 9.68653C13.3026 9.6792 13.2479 9.6792 13.2041 9.6792C13 9.6792 12.7922 9.74148 12.5662 9.78544C10.7288 10.1482 9.29974 12.9509 8.47584 14.4237H8.7602C9.60596 12.9839 10.1856 11.8115 11.323 11.8628C12.9562 11.936 13.5723 13.4015 14.0463 16.4314C14.5202 19.5053 14.429 23.8394 13.7546 29.4339L13.7036 29.8406L13.4994 31.2914C11.9282 33.105 10.6522 34.3177 9.66794 34.9295C8.90237 35.4498 8.03837 35.7062 7.06866 35.7062C6.7442 35.7062 6.32496 35.6769 5.80729 35.6219C5.22765 35.5633 4.77925 35.5304 4.45479 35.5304C3.31373 35.5304 2.57733 36.0066 2.25288 36.9592C2.07424 37.6846 2.14715 38.2049 2.49348 38.5236C2.83252 38.8424 3.3429 38.9999 4.01733 38.9999C5.97864 38.9999 8.67635 37.2926 12.0813 33.889C15.4717 30.4928 18.5595 26.6092 21.3447 22.2531L21.6144 21.8244C23.0362 19.5529 24.1007 17.5745 24.8225 15.8819C24.8444 15.8452 24.859 15.7976 24.8663 15.761V15.75Z" fill="black"/>
</svg>
