<svg width="28" height="28" viewBox="0 0 28 28" fill="none" xmlns="http://www.w3.org/2000/svg">
<g clip-path="url(#clip0_211_1242)">
<path d="M14.0001 9.73926C12.8701 9.73926 11.7863 10.1882 10.9872 10.9872C10.1882 11.7863 9.73926 12.8701 9.73926 14.0001C9.73926 15.1302 10.1882 16.2139 10.9872 17.013C11.7863 17.8121 12.8701 18.261 14.0001 18.261C15.1302 18.261 16.2139 17.8121 17.013 17.013C17.8121 16.2139 18.261 15.1302 18.261 14.0001C18.261 12.8701 17.8121 11.7863 17.013 10.9872C16.2139 10.1882 15.1302 9.73926 14.0001 9.73926Z" fill="#991D5B"/>
<path fill-rule="evenodd" clip-rule="evenodd" d="M8.4 0C6.17218 0 4.03561 0.884998 2.4603 2.4603C0.884998 4.03561 0 6.17218 0 8.4L0 19.6C0 21.8278 0.884998 23.9644 2.4603 25.5397C4.03561 27.115 6.17218 28 8.4 28H19.6C21.8278 28 23.9644 27.115 25.5397 25.5397C27.115 23.9644 28 21.8278 28 19.6V8.4C28 6.17218 27.115 4.03561 25.5397 2.4603C23.9644 0.884998 21.8278 0 19.6 0L8.4 0ZM7.46667 14C7.46667 12.2673 8.155 10.6055 9.38024 9.38024C10.6055 8.155 12.2673 7.46667 14 7.46667C15.7327 7.46667 17.3945 8.155 18.6198 9.38024C19.845 10.6055 20.5333 12.2673 20.5333 14C20.5333 15.7327 19.845 17.3945 18.6198 18.6198C17.3945 19.845 15.7327 20.5333 14 20.5333C12.2673 20.5333 10.6055 19.845 9.38024 18.6198C8.155 17.3945 7.46667 15.7327 7.46667 14ZM20.5333 7.46667H22.4V5.6H20.5333V7.46667Z" fill="#991D5B"/>
</g>
<defs>
<clipPath id="clip0_211_1242">
<rect width="28" height="28" fill="white"/>
</clipPath>
</defs>
</svg>
