<svg width="243" height="76" viewBox="0 0 243 76" fill="none" xmlns="http://www.w3.org/2000/svg">
<path d="M153.898 20.9401C151.128 19.7621 148.015 19.1552 144.653 19.1552C141.975 19.1552 139.448 19.505 137.12 20.1547C135.743 20.5474 134.415 21.0757 133.129 21.7754L134.279 26.7945C135.535 26.1305 136.792 25.6307 138.063 25.2952C140.212 24.7169 142.347 24.4313 144.403 24.4313C148.729 24.4313 152.071 25.4451 154.341 27.4085C156.183 29.0434 157.247 31.0996 157.547 33.6555C156.897 33.477 156.154 33.2629 155.276 33.0487C152.706 32.4561 149.3 32.1705 145.138 32.1705H142.896C139.948 32.249 137.242 32.8059 134.85 33.8197C132.401 34.8478 130.445 36.2829 128.996 38.0892C127.511 39.9526 126.754 42.2015 126.754 44.7931C126.754 47.3848 127.496 49.698 128.946 51.5828C130.381 53.4462 132.351 54.867 134.8 55.8522C137.206 56.7875 139.926 57.273 142.925 57.273C145.666 57.273 148.201 56.8518 150.443 56.0022C152.663 55.1668 154.619 54.1102 156.204 52.8536C156.718 52.461 157.19 52.054 157.625 51.6256V56.5305H163.208V35.9402C163.208 32.1277 162.359 28.9363 160.681 26.4732C159.003 24.0101 156.718 22.1467 153.891 20.9329L153.898 20.9401ZM153.748 48.3343C151.114 50.6475 147.73 51.9041 143.732 52.054H142.932C139.798 52.054 137.306 51.3615 135.493 49.9836C133.736 48.6699 132.908 46.9278 132.908 44.6575C132.908 42.5728 133.772 40.8878 135.585 39.5313C137.463 38.1106 141.004 37.3823 146.131 37.3823C146.345 37.3823 147.915 37.4109 150.864 37.4395C153.377 37.4823 155.647 38.032 157.625 39.0601C157.504 43.1011 156.233 46.1282 153.755 48.3343H153.748Z" fill="white"/>
<path d="M196.006 37.2467C193.9 36.5042 191.058 35.933 187.56 35.5618L181.12 34.8264C177.915 34.4409 175.666 33.834 174.43 33.013C173.352 32.299 172.853 31.3423 172.853 30.0001C172.853 28.2295 173.624 26.9658 175.287 26.0163C177.108 24.9739 179.814 24.4456 183.319 24.4456C185.797 24.4456 188.017 24.7883 189.909 25.4523C191.758 26.1091 193.264 27.023 194.385 28.1795C195.463 29.2933 196.077 30.5356 196.256 31.9778L196.377 32.9773H201.953L201.889 31.785C201.753 29.2433 200.832 26.9872 199.155 25.081C197.527 23.2319 195.321 21.7683 192.6 20.7188C189.923 19.6907 186.846 19.1695 183.448 19.1695C180.349 19.1695 177.565 19.5836 175.166 20.3975C172.688 21.2399 170.725 22.4822 169.333 24.11C167.891 25.7878 167.155 27.8368 167.155 30.1929C167.155 32.0991 167.648 33.7769 168.619 35.1691C169.576 36.5542 171.103 37.6822 173.138 38.5175C175.073 39.31 177.586 39.8883 180.628 40.2239L187.132 40.9592C190.973 41.3876 193.614 42.0088 194.985 42.787C196.142 43.4438 196.684 44.4005 196.684 45.7855C196.684 47.5347 195.706 48.9484 193.693 50.1121C191.508 51.3758 188.56 52.0183 184.933 52.0183C182.505 52.0183 180.285 51.6399 178.343 50.8974C176.437 50.1692 174.873 49.1483 173.709 47.8774C172.574 46.628 171.91 45.2358 171.696 43.608L171.568 42.6228H166.006L166.063 43.815C166.199 46.5066 167.12 48.9126 168.805 50.9545C170.454 52.9607 172.717 54.5386 175.523 55.6452C178.286 56.7375 181.449 57.2944 184.933 57.2944C188.417 57.2944 191.28 56.8304 193.85 55.9094C196.477 54.9669 198.562 53.6319 200.054 51.9398C201.603 50.1835 202.396 48.1059 202.396 45.7855C202.396 43.6723 201.889 41.9017 200.889 40.5166C199.897 39.1458 198.255 38.0535 196.02 37.261L196.006 37.2467Z" fill="white"/>
<path d="M242.736 36.5899C242.6 34.805 242.264 33.1272 241.722 31.5494C241.372 30.5071 240.936 29.5075 240.422 28.5508C238.816 25.6165 236.553 23.289 233.676 21.6398C230.92 20.0548 227.714 19.2195 224.144 19.1767C224.009 19.1624 223.859 19.1624 223.723 19.1624C219.868 19.1624 216.419 19.962 213.485 21.5684C210.536 23.1748 208.188 25.4237 206.51 28.2867C205.225 30.4642 204.425 32.9345 204.132 35.6546C204.09 36.033 204.054 36.44 204.025 36.8326C203.997 37.2896 203.982 37.7394 203.982 38.2106C203.982 38.6818 203.997 39.1458 204.025 39.6028C204.04 39.9954 204.082 40.3881 204.132 40.7808C204.446 43.4867 205.296 45.9569 206.645 48.1345C208.402 51.0117 210.879 53.2749 214.028 54.8813C216.962 56.3806 220.368 57.1802 224.152 57.2588C224.38 57.273 224.608 57.273 224.83 57.273C225.008 57.273 225.18 57.2588 225.33 57.2159H225.344C228.428 57.016 231.241 56.2021 233.683 54.7956C236.56 53.1464 238.823 50.8189 240.43 47.8846C240.565 47.6276 240.701 47.3848 240.822 47.1135C241.108 46.5352 241.365 45.9498 241.579 45.3286H235.482C235.403 45.4786 235.332 45.6142 235.253 45.7642C234.982 46.2354 234.697 46.6851 234.361 47.1135C233.361 48.4129 232.105 49.4767 230.641 50.2763C228.814 51.2616 226.65 51.8042 224.244 51.8613C221.403 51.8042 218.89 51.2259 216.784 50.1692C214.542 49.034 212.793 47.4491 211.565 45.4357C210.901 44.3434 210.415 43.1368 210.094 41.8232C209.944 41.1877 209.837 40.538 209.758 39.8598H242.843V38.7246C242.843 38.5604 242.843 38.3891 242.828 38.2391C242.828 37.6822 242.8 37.1325 242.736 36.6042V36.5899ZM210.072 34.6194C210.358 33.3057 210.815 32.0777 211.45 30.9568C212.571 28.9578 214.17 27.3728 216.248 26.2519C218.333 25.1167 220.846 24.5598 223.723 24.5598C223.887 24.5598 224.073 24.5598 224.237 24.5741C226.643 24.6312 228.806 25.1667 230.634 26.1591C232.583 27.2157 234.147 28.7293 235.246 30.6641C235.91 31.8564 236.41 33.1772 236.731 34.6123H210.08L210.072 34.6194Z" fill="white"/>
<path d="M100.656 50.7119C99.8418 51.5472 99.0922 51.9684 98.4068 51.9684C97.3573 51.9684 96.8289 51.2259 96.8289 49.748C96.8289 48.6485 97.1716 47.0207 97.857 44.8717L103.062 29.172C103.797 27.023 104.168 25.1382 104.168 23.5104C104.168 21.8826 103.826 20.7617 103.14 19.9977C102.455 19.2338 101.562 18.8483 100.463 18.8483C98.6781 18.8483 96.8361 19.7693 94.9441 21.6112C93.0521 23.4532 91.5743 25.0596 88.8398 28.5437H89.5467C91.2316 26.3019 91.6956 25.7664 92.6166 24.8312C93.5376 23.903 94.4158 23.4318 95.2583 23.4318C96.1507 23.4318 96.6005 24.0744 96.6005 25.3666C96.6005 26.2733 96.3863 27.3728 95.9722 28.6651L90.689 44.936C89.7965 47.7061 89.3468 50.0479 89.3468 51.9613C89.3468 53.6819 89.6895 54.9456 90.3748 55.7595C91.0602 56.5734 91.9241 56.9803 92.9808 56.9803C94.7157 56.9803 96.5291 56.0379 98.421 54.1531C100.313 52.2683 102.548 49.6266 105.125 46.2354H104.411C102.726 48.3844 101.477 49.8765 100.67 50.7119H100.656Z" fill="white"/>
<path d="M122.033 47.9489C121.027 49.1912 120.234 50.1264 119.656 50.7047C118.849 51.5401 118.099 51.9684 117.421 51.9684C116.364 51.9684 115.843 51.2259 115.843 49.748C115.843 48.6486 116.172 47.0208 116.864 44.8646L122.062 29.172C122.804 27.0159 123.161 25.1382 123.161 23.5033C123.161 21.8683 122.811 20.7617 122.14 20.0049C121.462 19.2338 120.562 18.8554 119.463 18.8554C117.664 18.8554 115.836 19.7693 113.951 21.6113C112.723 22.8107 111.338 24.3386 109.746 26.2091C108.896 27.2301 108.818 27.3086 107.84 28.5437H108.547C109.368 27.4585 109.261 27.5799 109.889 26.8088C110.581 25.9735 111.153 25.3095 111.624 24.8383C112.538 23.8959 113.423 23.439 114.273 23.439C115.122 23.439 115.615 24.0816 115.615 25.3738C115.615 26.2734 115.393 27.3729 114.986 28.6651L109.696 44.936C108.811 47.7062 108.354 50.0408 108.354 51.9613C108.354 53.6819 108.704 54.9385 109.375 55.7595C110.067 56.5663 110.931 56.9732 111.988 56.9732C113.723 56.9732 115.529 56.0308 117.421 54.1388C118.82 52.7538 120.413 50.9261 122.212 48.6914C122.826 47.9203 123.454 47.0993 124.118 46.2354H123.411C122.926 46.8637 122.469 47.4349 122.04 47.956L122.033 47.9489Z" fill="white"/>
<path d="M78.3801 46.8708C78.5229 46.2711 78.7085 45.5928 78.9441 44.8717L86.2692 21.6327L92.6162 2.1347L93.3373 0H91.8737C87.3187 2.47027 83.085 3.71967 79.144 3.71967L78.8156 4.64067C80.3577 4.64067 81.5072 4.69065 82.2997 4.79774C82.471 4.81202 82.6281 4.84772 82.7709 4.87628C83.3063 5.00479 83.6847 5.2047 83.906 5.49028C84.2059 5.85439 84.2844 6.37557 84.1417 7.04668C83.9846 7.71065 83.7347 8.63879 83.3563 9.83823L79.7152 20.3404C79.6509 20.2762 79.5866 20.2333 79.5081 20.1834L79.4938 20.2119C77.3806 19.2981 75.4743 18.8411 73.7251 18.8411H73.6966C70.4053 18.8554 66.7498 20.2262 62.7803 22.9678C62.766 22.9678 62.766 22.982 62.766 22.982C62.6589 23.0606 62.5304 23.1391 62.4162 23.2176C58.2895 26.1306 54.8055 29.7717 51.9425 34.1482C49.0724 38.5105 47.6445 42.7513 47.6445 46.8637C47.6445 48.927 48.0086 50.7047 48.744 52.2326C49.4865 53.7747 50.4289 54.9456 51.5784 55.7452C52.7421 56.5662 53.9416 56.9732 55.2053 56.9732C56.3262 56.9732 57.3971 56.6448 58.4323 55.9522C58.825 55.7166 59.2034 55.4168 59.5818 55.0669C60.9811 53.8032 62.3733 52.1041 63.7584 49.9765C65.1577 47.8489 67.064 44.6861 69.4771 40.4738L71.9974 36.1758L75.9526 29.5147H76.6595L73.2753 39.974L71.6832 44.9217C71.3191 46.0426 71.0193 47.1135 70.8193 48.1345C70.8193 48.1345 70.6337 49.2554 70.598 49.3982V49.4125C70.4909 50.2478 70.4267 51.0474 70.4267 51.8042C70.4267 53.5676 70.7765 54.8742 71.4476 55.7095C72.1402 56.5448 73.004 56.9732 74.0464 56.9732C75.7313 56.9732 77.5305 56.0094 79.451 54.1031C80.9146 52.6538 82.5567 50.7975 84.3987 48.5129C84.9627 47.7918 85.5767 47.0136 86.1978 46.214H85.491C83.7561 48.4201 82.4853 49.9194 81.6642 50.7333C80.8575 51.54 80.1078 51.947 79.4296 51.947C78.4229 51.947 77.9303 51.2402 77.9303 49.8051C77.9303 49.1126 78.0588 48.213 78.323 47.0921C78.3372 47.0136 78.3515 46.9351 78.3872 46.8565L78.3801 46.8708ZM71.212 35.8403C68.6918 40.0954 66.7712 43.2439 65.429 45.3215C64.0725 47.3991 62.8945 48.9627 61.8379 49.9836C60.7812 51.0046 59.7888 51.5258 58.8464 51.5258C57.7898 51.5258 56.8759 51.0046 56.1191 49.9836C55.3623 48.9627 54.9697 47.3491 54.9697 45.1502C54.9697 41.3877 55.8335 37.5252 57.5399 33.6199C59.2391 29.7003 61.3667 26.4661 63.8869 23.9316C66.4071 21.4113 68.8203 20.1334 71.1335 20.1334C72.2972 20.1334 73.3682 20.4332 74.382 21.033C75.3458 21.6184 76.6023 22.5465 78.1659 23.8031C78.2159 23.8316 78.273 23.8816 78.323 23.9316L78.1516 24.2172L71.2192 35.8403H71.212Z" fill="white"/>
<path d="M96.1052 8.41743H96.1124H98.5969C101.902 8.41743 103.759 10.8377 102.745 13.822L101.981 16.071C101.952 16.1709 102.01 16.2495 102.117 16.2495C102.224 16.2495 102.338 16.1709 102.374 16.071L103.138 13.822C104.151 10.8377 107.65 8.41743 110.955 8.41743H118.045C121.022 8.41743 122.65 10.595 121.679 13.2866L120.672 16.071C120.637 16.1709 120.694 16.2495 120.801 16.2495C120.908 16.2495 121.022 16.1709 121.058 16.071L122.064 13.2866C123.035 10.595 126.234 8.41743 129.218 8.41743H132.281C132.388 8.41743 132.51 8.3389 132.545 8.23894C132.581 8.13899 132.524 8.06045 132.417 8.06045H129.332C126.362 8.06045 124.735 5.88291 125.706 3.20559L126.712 0.421194C126.748 0.321241 126.691 0.242706 126.577 0.242706C126.462 0.242706 126.348 0.321241 126.312 0.421194L125.306 3.20559C124.335 5.89005 121.143 8.06045 118.173 8.06045H111.048C107.75 8.06045 105.893 5.6473 106.907 2.67013L107.671 0.421194C107.707 0.321241 107.643 0.242706 107.536 0.242706C107.428 0.242706 107.307 0.321241 107.279 0.421194L106.515 2.67013C105.501 5.6473 102.01 8.06045 98.7111 8.06045H96.2052C96.0981 8.06759 95.991 8.14613 95.9624 8.23894C95.9339 8.33176 95.991 8.41029 96.0909 8.41743H96.1052Z" fill="white"/>
<path d="M48.6993 30.6928C49.8059 28.0868 50.4627 25.8379 50.6698 23.9531C50.8483 22.3752 50.6698 21.1401 50.1557 20.2334C50.0415 20.0263 49.9058 19.8479 49.7416 19.6908C49.2276 19.1625 48.5208 18.8983 47.6069 18.8983C46.5503 18.8983 45.6364 19.191 44.9011 19.7836C44.1514 20.369 43.723 21.1544 43.6231 22.0968C43.5517 22.7322 43.723 23.8174 44.1657 25.3952C44.1657 25.4238 44.18 25.4381 44.1943 25.4666C44.5655 26.509 44.8297 27.4943 45.001 28.4224C45.1652 29.3791 45.1938 30.45 45.0438 31.628C44.9582 32.4633 44.6726 33.5985 44.2371 34.9979C43.3375 37.3682 41.2813 40.9451 38.0543 45.7571C37.683 46.2997 37.3189 46.8494 36.9477 47.3778C35.5483 49.3911 34.1204 51.3687 32.6354 53.3107C32.564 53.4249 32.4712 53.532 32.3855 53.6462C32.3855 53.6034 32.3998 53.5749 32.3998 53.532C32.4855 53.0322 32.564 52.561 32.6211 52.1327C32.8282 50.8047 32.971 49.7338 33.0781 48.927C33.742 43.3083 33.8991 38.2178 33.5778 33.6699C33.2423 29.1078 32.3998 25.5309 31.0504 22.9107C30.4293 21.6756 29.6797 20.7332 28.8443 20.0977C28.0804 19.3338 27.1665 18.934 26.1242 18.8769C26.0528 18.8626 25.9457 18.8626 25.86 18.8626C25.4602 18.8626 25.0533 18.984 24.6106 19.0697C21.0123 19.7765 18.2136 25.2382 16.6001 28.1083H17.157C18.8133 25.3024 19.9485 23.0178 22.176 23.1177C25.3745 23.2605 26.5811 26.1163 27.5092 32.0207C28.4374 38.0107 28.2589 46.4568 26.9381 57.3588L26.8381 58.1513L26.4383 60.9785C23.3612 64.5126 20.8624 66.8757 18.9347 68.068C17.4354 69.0818 15.7434 69.5816 13.8442 69.5816C13.2088 69.5816 12.3878 69.5245 11.374 69.4174C10.2388 69.3032 9.36064 69.2389 8.72522 69.2389C6.49056 69.2389 5.04838 70.1671 4.41297 72.0233C4.06313 73.4369 4.20592 74.4507 4.88417 75.0719C5.54815 75.693 6.54768 76 7.86848 76C11.7095 76 16.9928 72.673 23.6611 66.0404C30.3008 59.4221 36.3479 51.8542 41.8025 43.3654L42.3308 42.53C45.1152 38.1036 47.2 34.2482 48.6136 30.9498C48.6564 30.8784 48.685 30.7856 48.6993 30.7142V30.6928Z" fill="white"/>
<path d="M9.01005 54.1183C9.9239 53.2044 10.9163 52.1478 11.9729 50.9198C12.6012 50.1773 13.2652 49.3776 13.9577 48.528C14.2576 48.1496 14.5574 47.757 14.8716 47.3643C15.1572 47.0002 15.4356 46.6218 15.7355 46.2291H15.0429C13.7364 47.8855 12.694 49.142 11.9087 50.013C11.6588 50.2986 11.4232 50.5485 11.2162 50.7556C11.2162 50.7556 11.2114 50.7651 11.2019 50.7841C10.8235 51.1768 10.4451 51.4766 10.0667 51.6694C9.6883 51.8622 9.32418 51.9693 8.98149 51.9693C8.73161 51.9693 8.496 51.9193 8.30324 51.8408C7.73921 51.5695 7.45364 50.8983 7.45364 49.8274C7.45364 48.7565 7.80347 47.0716 8.47458 44.8798L20.3833 7.91143L22.1824 2.14272L22.9106 0.0151367H21.4471C16.8921 2.4854 12.6583 3.73482 8.71733 3.73482L8.38891 4.64868C9.93104 4.64868 11.0805 4.69865 11.873 4.80575C12.0443 4.82002 12.2014 4.85572 12.3442 4.88428C12.3585 4.88428 12.3728 4.89856 12.3942 4.89856C12.9011 5.02707 13.258 5.22698 13.4794 5.49828C13.7792 5.86239 13.8578 6.38357 13.715 7.05468C13.5579 7.71866 13.308 8.64679 12.9296 9.84623L2.84866 39.9963L1.68492 43.6375L1.25655 44.944C1.25655 44.944 1.24227 44.994 1.24227 45.0225C0.721088 46.7574 0.356973 48.2996 0.157067 49.6561C0.107091 50.0059 0.0642553 50.3343 0.0499763 50.6627C0.0214183 51.0554 0 51.4481 0 51.8265C0 53.5899 0.349836 54.8965 1.02095 55.7318C1.11376 55.8389 1.19229 55.9388 1.29225 56.0316C1.38506 56.1102 1.47788 56.203 1.57783 56.2815C1.86341 56.5171 2.17755 56.6885 2.50596 56.817C2.8558 56.9241 3.23419 56.9883 3.62686 56.9883C4.05523 56.9883 4.47647 56.9241 4.91911 56.817C6.22564 56.4529 7.58215 55.5533 9.03146 54.1254L9.01005 54.1183Z" fill="white"/>
</svg>
