<svg width="32" height="32" viewBox="0 0 32 32" fill="none" xmlns="http://www.w3.org/2000/svg">
<path d="M9.31564 27.4619V24.1778C10.4506 24.0473 11.338 23.0882 11.338 21.9141C11.338 20.7379 10.4506 19.7773 9.31564 19.6468L9.31564 4.25794C9.31564 4.11563 9.20014 4.00012 9.05782 4.00012C8.9155 4.00012 8.8 4.11563 8.8 4.25794L8.8 19.6468C7.66713 19.7778 6.78125 20.7384 6.78125 21.9141C6.78125 23.0877 7.66713 24.0468 8.8 24.1778V27.4619C8.8 27.6043 8.9155 27.7198 9.05782 27.7198C9.20014 27.7198 9.31564 27.6043 9.31564 27.4619ZM7.29689 21.9141C7.29689 20.9339 8.08686 20.1362 9.05782 20.1362C10.0308 20.1362 10.8224 20.9339 10.8224 21.9141C10.8224 22.8923 10.0308 23.6879 9.05782 23.6879C8.08686 23.6885 7.29689 22.8928 7.29689 21.9141Z" fill="black"/>
<path d="M15.7421 4.25782V7.54196C14.6077 7.67242 13.7197 8.63306 13.7197 9.80873C13.7197 10.9829 14.6072 11.9425 15.7421 12.0729V27.4618C15.7421 27.6041 15.8576 27.7196 15.9999 27.7196C16.1422 27.7196 16.2577 27.6041 16.2577 27.4618V12.0729C17.3921 11.9425 18.2801 10.9834 18.2801 9.80873C18.2801 8.63306 17.3927 7.67242 16.2577 7.54196V4.25782C16.2577 4.1155 16.1422 4 15.9999 4C15.8576 4 15.7421 4.1155 15.7421 4.25782ZM17.7644 9.80925C17.7644 10.7874 16.9729 11.5836 15.9999 11.5836C15.0269 11.5836 14.2354 10.7874 14.2354 9.80925C14.2354 8.82952 15.0269 8.03182 15.9999 8.03182C16.9729 8.03182 17.7644 8.82901 17.7644 9.80925Z" fill="black"/>
<path d="M22.6845 4.25782V19.6467C21.5495 19.7772 20.6621 20.7383 20.6621 21.914C20.6621 23.0876 21.5495 24.0472 22.6845 24.1777V27.4618C22.6845 27.6041 22.8 27.7196 22.9423 27.7196C23.0846 27.7196 23.2001 27.6041 23.2001 27.4618V24.1777C24.333 24.0467 25.2189 23.0876 25.2189 21.914C25.2189 20.7378 24.333 19.7772 23.2001 19.6467V4.25782C23.2001 4.1155 23.0846 4 22.9423 4C22.8 4 22.6845 4.1155 22.6845 4.25782ZM24.7032 21.914C24.7032 22.8922 23.9132 23.6878 22.9423 23.6878C21.9693 23.6878 21.1778 22.8922 21.1778 21.914C21.1778 20.9338 21.9693 20.1361 22.9423 20.1361C23.9132 20.1361 24.7032 20.9338 24.7032 21.914Z" fill="black"/>
</svg>
