<svg width="57" height="57" viewBox="0 0 57 57" fill="none" xmlns="http://www.w3.org/2000/svg">
<rect width="57" height="57" rx="28.5" fill="#F6F6F6"/>
<path d="M38.4139 17.9199H18.5872C17.7032 17.9199 16.8553 18.2711 16.2302 18.8962C15.6051 19.5214 15.2539 20.3692 15.2539 21.2533V35.7466C15.2539 36.6306 15.6051 37.4785 16.2302 38.1036C16.8553 38.7287 17.7032 39.0799 18.5872 39.0799H38.4139C39.298 39.0799 40.1458 38.7287 40.7709 38.1036C41.396 37.4785 41.7472 36.6306 41.7472 35.7466V21.2533C41.7472 20.3692 41.396 19.5214 40.7709 18.8962C40.1458 18.2711 39.298 17.9199 38.4139 17.9199ZM18.5872 19.2533H38.4139C38.9185 19.2521 39.4046 19.443 39.7736 19.7872C40.1425 20.1314 40.3667 20.6031 40.4006 21.1066C37.1072 22.8666 33.8006 24.6133 30.4939 26.3733C30.0473 26.6549 29.5739 26.8916 29.0806 27.0799C28.6938 27.1565 28.2951 27.1497 27.9112 27.0601C27.5272 26.9704 27.1668 26.7999 26.8539 26.5599C24.9606 25.5599 23.0672 24.5466 21.1872 23.5466C19.6672 22.7466 18.1206 21.9333 16.6006 21.1199C16.6312 20.6141 16.8539 20.1391 17.2232 19.7921C17.5925 19.4451 18.0805 19.2523 18.5872 19.2533ZM40.4139 35.7466C40.4139 36.277 40.2032 36.7857 39.8281 37.1608C39.453 37.5359 38.9443 37.7466 38.4139 37.7466H18.5872C18.0568 37.7466 17.5481 37.5359 17.173 37.1608C16.798 36.7857 16.5872 36.277 16.5872 35.7466V22.6333C19.7339 24.2866 22.8672 25.9666 26.0139 27.6333C26.5759 27.9782 27.1812 28.2472 27.8139 28.4333C28.7398 28.584 29.6887 28.3895 30.4806 27.8866C32.4139 26.8733 34.3339 25.8466 36.2672 24.8333C37.6539 24.0866 39.0272 23.3666 40.4139 22.6333V35.7466Z" fill="#991D5B"/>
</svg>
