<svg width="57" height="57" viewBox="0 0 57 57" fill="none" xmlns="http://www.w3.org/2000/svg">
<rect width="57" height="57" rx="28.5" fill="#F6F6F6"/>
<path d="M42.725 15.9461C42.518 16.0032 11.4033 27.5661 10.9246 27.7564C10.5947 27.8896 10.4395 28.0799 10.4395 28.3336C10.4395 28.5175 10.4783 28.5809 10.6788 28.7078C10.8146 28.7966 12.2507 29.3421 13.8808 29.9192L16.8306 30.9785L25.8868 26.2151C33.1189 22.4094 34.9948 21.4517 35.1824 21.4517C35.6287 21.4517 36.0622 21.8069 36.1462 22.2382C36.2432 22.7519 36.3857 22.6124 29.7617 28.5556C26.3655 31.6064 23.5904 34.1309 23.5969 34.1689C23.6163 34.2387 36.418 42.9028 36.7672 43.0742C37.3236 43.3596 37.7312 43.2771 37.9898 42.8204C38.1839 42.4779 43.5595 17.0498 43.5595 16.4599C43.5595 16.1237 43.5401 16.054 43.4172 15.9715C43.2554 15.8573 43.0549 15.851 42.725 15.9461Z" fill="#991D5B"/>
<path d="M22.6339 30.0852C19.6142 31.7024 17.6282 32.8013 17.6407 32.8513C17.672 32.9512 19.9399 38.1399 20.1529 38.5769L20.3158 38.9204L20.3471 36.6413C20.3722 34.893 20.3973 34.3249 20.4662 34.1999C20.51 34.1062 22.1327 32.5828 24.0748 30.8095C27.6083 27.5752 27.8025 27.4004 27.7023 27.4004C27.6708 27.4066 25.3905 28.6117 22.6339 30.0852Z" fill="#991D5B"/>
<path d="M21.9609 38.9067C21.9609 40.5525 21.9841 41.801 22.0131 41.801C22.1116 41.801 24.8177 38.6685 24.8409 38.5242C24.8525 38.4591 22.1985 36.1278 22.0131 36.0411C21.9841 36.0267 21.9609 37.3189 21.9609 38.9067Z" fill="#991D5B"/>
</svg>
