<svg width="57" height="57" viewBox="0 0 57 57" fill="none" xmlns="http://www.w3.org/2000/svg">
<rect width="57" height="57" rx="28.5" fill="#F6F6F6"/>
<g clip-path="url(#clip0_211_733)">
<path d="M28.7996 23.5695C27.4919 23.5695 26.2379 24.089 25.3132 25.0136C24.3886 25.9382 23.8691 27.1923 23.8691 28.5C23.8691 29.8076 24.3886 31.0617 25.3132 31.9863C26.2379 32.9109 27.4919 33.4304 28.7996 33.4304C30.1072 33.4304 31.3613 32.9109 32.2859 31.9863C33.2106 31.0617 33.73 29.8076 33.73 28.5C33.73 27.1923 33.2106 25.9382 32.2859 25.0136C31.3613 24.089 30.1072 23.5695 28.7996 23.5695Z" fill="#991D5B"/>
<path fill-rule="evenodd" clip-rule="evenodd" d="M22.3196 12.3C19.7417 12.3 17.2694 13.3241 15.4465 15.1469C13.6237 16.9698 12.5996 19.4421 12.5996 22.02L12.5996 34.98C12.5996 37.5579 13.6237 40.0302 15.4465 41.8531C17.2694 43.6759 19.7417 44.7 22.3196 44.7H35.2796C37.8575 44.7 40.3298 43.6759 42.1527 41.8531C43.9755 40.0302 44.9996 37.5579 44.9996 34.98V22.02C44.9996 19.4421 43.9755 16.9698 42.1527 15.1469C40.3298 13.3241 37.8575 12.3 35.2796 12.3H22.3196ZM21.2396 28.5C21.2396 26.495 22.0361 24.572 23.4539 23.1543C24.8717 21.7365 26.7946 20.94 28.7996 20.94C30.8046 20.94 32.7276 21.7365 34.1453 23.1543C35.5631 24.572 36.3596 26.495 36.3596 28.5C36.3596 30.505 35.5631 32.4279 34.1453 33.8457C32.7276 35.2635 30.8046 36.06 28.7996 36.06C26.7946 36.06 24.8717 35.2635 23.4539 33.8457C22.0361 32.4279 21.2396 30.505 21.2396 28.5ZM36.3596 20.94H38.5196V18.78H36.3596V20.94Z" fill="#991D5B"/>
</g>
<path d="M52.968 9.36V10.704L50.784 10.632L52.032 12.432L50.808 13.152L49.704 11.208L48.6 13.152L47.376 12.432L48.624 10.632L46.44 10.704V9.36L48.624 9.432L47.376 7.632L48.6 6.912L49.704 8.856L50.808 6.912L52.032 7.632L50.784 9.432L52.968 9.36Z" fill="#991D5B"/>
<defs>
<clipPath id="clip0_211_733">
<rect width="32.4" height="32.4" fill="white" transform="translate(12.5996 12.3)"/>
</clipPath>
</defs>
</svg>
