<svg width="28" height="28" viewBox="0 0 28 28" fill="none" xmlns="http://www.w3.org/2000/svg">
<path d="M26.2311 2.49107C26.0701 2.53934 1.86977 12.3147 1.49746 12.4756C1.24087 12.5882 1.12012 12.749 1.12012 12.9635C1.12012 13.119 1.1503 13.1727 1.30627 13.2799C1.41193 13.355 2.52887 13.8162 3.79674 14.304L6.091 15.1996L13.1347 11.1725C18.7597 7.95519 20.2187 7.1455 20.3646 7.1455C20.7118 7.1455 21.049 7.44579 21.1143 7.81041C21.1897 8.24476 21.3005 8.12679 16.1485 13.1512C13.5071 15.7305 11.3487 17.8646 11.3537 17.8968C11.3688 17.9558 21.3256 25.2806 21.5973 25.4254C22.03 25.6667 22.347 25.597 22.5482 25.2108C22.6991 24.9213 26.8801 3.4241 26.8801 2.92542C26.8801 2.64122 26.865 2.58223 26.7695 2.51253C26.6436 2.416 26.4877 2.41064 26.2311 2.49107Z" fill="#991D5B"/>
<path d="M10.6039 14.4441C8.25518 15.8112 6.71052 16.7403 6.72026 16.7826C6.74464 16.867 8.50857 21.2536 8.67424 21.623L8.80093 21.9134L8.82529 19.9867C8.84479 18.5086 8.86427 18.0284 8.91787 17.9227C8.95199 17.8435 10.214 16.5556 11.7246 15.0564C14.4729 12.3221 14.6239 12.1743 14.546 12.1743C14.5215 12.1796 12.7479 13.1984 10.6039 14.4441Z" fill="#991D5B"/>
<path d="M10.0801 21.9017C10.0801 23.293 10.0981 24.3486 10.1206 24.3486C10.1973 24.3486 12.302 21.7003 12.32 21.5783C12.3291 21.5233 10.2649 19.5524 10.1206 19.4791C10.0981 19.4669 10.0801 20.5593 10.0801 21.9017Z" fill="#991D5B"/>
</svg>
