<svg width="205" height="65" viewBox="0 0 205 65" fill="none" xmlns="http://www.w3.org/2000/svg">
<path d="M129.916 17.6769C127.578 16.6825 124.95 16.1702 122.111 16.1702C119.851 16.1702 117.718 16.4655 115.753 17.014C114.59 17.3455 113.469 17.7915 112.384 18.3821L113.354 22.619C114.415 22.0585 115.476 21.6366 116.549 21.3534C118.363 20.8652 120.165 20.6241 121.901 20.6241C125.553 20.6241 128.373 21.4799 130.29 23.1373C131.845 24.5175 132.743 26.2533 132.996 28.4109C132.448 28.2602 131.821 28.0794 131.08 27.8986C128.91 27.3984 126.035 27.1573 122.521 27.1573H120.629C118.14 27.2236 115.856 27.6937 113.836 28.5495C111.769 29.4174 110.118 30.6288 108.894 32.1536C107.641 33.7267 107.002 35.6251 107.002 37.8129C107.002 40.0007 107.629 41.9534 108.852 43.5445C110.064 45.1176 111.727 46.3169 113.794 47.1486C115.825 47.9382 118.122 48.348 120.653 48.348C122.967 48.348 125.107 47.9924 126.999 47.2752C128.874 46.57 130.525 45.6781 131.863 44.6173C132.297 44.2858 132.695 43.9423 133.062 43.5807V47.7212H137.775V30.3395C137.775 27.1211 137.058 24.4271 135.642 22.3478C134.226 20.2685 132.297 18.6955 129.91 17.6709L129.916 17.6769ZM129.79 40.8023C127.566 42.755 124.709 43.8157 121.334 43.9423H120.659C118.013 43.9423 115.91 43.3577 114.379 42.1945C112.896 41.0855 112.197 39.615 112.197 37.6984C112.197 35.9385 112.926 34.5162 114.457 33.3711C116.042 32.1717 119.032 31.557 123.359 31.557C123.54 31.557 124.866 31.5811 127.355 31.6052C129.476 31.6413 131.393 32.1054 133.062 32.9733C132.96 36.3845 131.887 38.94 129.796 40.8023H129.79Z" fill="black"/>
<path d="M165.462 31.4424C163.684 30.8156 161.285 30.3335 158.332 30.0201L152.896 29.3993C150.19 29.0738 148.291 28.5615 147.248 27.8684C146.338 27.2657 145.917 26.4581 145.917 25.3251C145.917 23.8304 146.567 22.7636 147.972 21.9621C149.509 21.0821 151.793 20.6361 154.752 20.6361C156.843 20.6361 158.718 20.9254 160.315 21.4859C161.876 22.0404 163.148 22.8119 164.094 23.7882C165.004 24.7284 165.522 25.7771 165.673 26.9945L165.775 27.8383H170.482L170.428 26.8318C170.314 24.6862 169.536 22.7817 168.12 21.1725C166.746 19.6115 164.883 18.376 162.587 17.4901C160.327 16.6222 157.729 16.1822 154.861 16.1822C152.245 16.1822 149.894 16.5318 147.869 17.2189C145.778 17.93 144.121 18.9787 142.945 20.3529C141.728 21.7692 141.107 23.4989 141.107 25.4878C141.107 27.097 141.523 28.5133 142.343 29.6886C143.15 30.8578 144.44 31.8101 146.158 32.5152C147.791 33.1842 149.912 33.6724 152.48 33.9556L157.97 34.5764C161.213 34.938 163.443 35.4624 164.6 36.1193C165.576 36.6738 166.034 37.4814 166.034 38.6506C166.034 40.1272 165.209 41.3206 163.509 42.3029C161.665 43.3697 159.176 43.9121 156.114 43.9121C154.065 43.9121 152.191 43.5927 150.551 42.9659C148.942 42.3512 147.622 41.4893 146.64 40.4165C145.681 39.3618 145.121 38.1866 144.94 36.8124L144.832 35.9807H140.137L140.185 36.9872C140.299 39.2593 141.077 41.2904 142.499 43.0141C143.892 44.7077 145.802 46.0396 148.171 46.9738C150.503 47.8959 153.173 48.366 156.114 48.366C159.055 48.366 161.472 47.9743 163.642 47.1968C165.86 46.4013 167.62 45.2742 168.879 43.8458C170.187 42.3632 170.856 40.6094 170.856 38.6506C170.856 36.8666 170.428 35.372 169.584 34.2027C168.747 33.0456 167.36 32.1235 165.474 31.4545L165.462 31.4424Z" fill="black"/>
<path d="M204.909 30.888C204.795 29.3813 204.512 27.9649 204.054 26.633C203.758 25.7531 203.391 24.9093 202.957 24.1017C201.601 21.6246 199.69 19.6598 197.261 18.2676C194.935 16.9296 192.229 16.2245 189.215 16.1883C189.101 16.1763 188.974 16.1763 188.86 16.1763C185.605 16.1763 182.694 16.8513 180.217 18.2073C177.728 19.5634 175.745 21.4619 174.329 23.8787C173.244 25.7169 172.569 27.8022 172.322 30.0985C172.286 30.4179 172.256 30.7614 172.231 31.0929C172.207 31.4786 172.195 31.8583 172.195 32.2561C172.195 32.6539 172.207 33.0457 172.231 33.4314C172.244 33.7629 172.28 34.0943 172.322 34.4258C172.587 36.71 173.304 38.7953 174.443 40.6336C175.926 43.0624 178.017 44.9729 180.675 46.329C183.152 47.5947 186.027 48.2697 189.221 48.336C189.414 48.348 189.607 48.348 189.794 48.348C189.945 48.348 190.089 48.336 190.216 48.2998H190.228C192.832 48.1311 195.206 47.444 197.267 46.2567C199.696 44.8645 201.607 42.8997 202.963 40.4226C203.077 40.2056 203.192 40.0007 203.294 39.7717C203.535 39.2835 203.752 38.7893 203.933 38.265H198.786C198.72 38.3915 198.66 38.506 198.593 38.6326C198.364 39.0304 198.123 39.4101 197.84 39.7717C196.996 40.8686 195.935 41.7666 194.7 42.4416C193.157 43.2733 191.331 43.7314 189.3 43.7796C186.901 43.7314 184.78 43.2432 183.002 42.3512C181.109 41.3929 179.633 40.055 178.596 38.3554C178.035 37.4333 177.626 36.4147 177.354 35.3057C177.228 34.7694 177.137 34.2209 177.071 33.6483H205V32.6901C205 32.5514 205 32.4068 204.988 32.2802C204.988 31.8101 204.964 31.346 204.909 30.9001V30.888ZM177.336 29.2246C177.577 28.1156 177.963 27.079 178.499 26.1328C179.446 24.4452 180.796 23.1072 182.55 22.161C184.309 21.2027 186.431 20.7326 188.86 20.7326C188.998 20.7326 189.155 20.7326 189.294 20.7447C191.325 20.7929 193.151 21.2449 194.694 22.0827C196.339 22.9746 197.659 24.2524 198.587 25.8857C199.148 26.8922 199.57 28.0071 199.841 29.2185H177.342L177.336 29.2246Z" fill="black"/>
<path d="M84.9726 42.8093C84.2855 43.5144 83.6527 43.87 83.0741 43.87C82.1882 43.87 81.7422 43.2432 81.7422 41.9957C81.7422 41.0675 82.0315 39.6934 82.6101 37.8793L87.0037 24.626C87.6245 22.8119 87.9379 21.2208 87.9379 19.8467C87.9379 18.4725 87.6486 17.5263 87.07 16.8814C86.4914 16.2366 85.738 15.9111 84.8099 15.9111C83.3032 15.9111 81.7482 16.6886 80.1511 18.2435C78.5539 19.7985 77.3064 21.1545 74.998 24.0957H75.5947C77.0171 22.2032 77.4088 21.7512 78.1863 20.9617C78.9638 20.1782 79.7051 19.7804 80.4163 19.7804C81.1696 19.7804 81.5493 20.3228 81.5493 21.4137C81.5493 22.1791 81.3685 23.1073 81.019 24.1981L76.559 37.9335C75.8057 40.272 75.426 42.2488 75.426 43.864C75.426 45.3165 75.7153 46.3833 76.2938 47.0703C76.8724 47.7574 77.6017 48.1009 78.4937 48.1009C79.9582 48.1009 81.489 47.3054 83.0862 45.7143C84.6833 44.1232 86.5698 41.8932 88.7455 39.0304H88.1428C86.7204 40.8445 85.6657 42.1041 84.9847 42.8093H84.9726Z" fill="black"/>
<path d="M103.019 40.4769C102.169 41.5256 101.5 42.3151 101.012 42.8033C100.331 43.5084 99.6978 43.8701 99.1252 43.8701C98.2333 43.8701 97.7933 43.2432 97.7933 41.9957C97.7933 41.0675 98.0705 39.6934 98.6551 37.8733L103.043 24.6261C103.67 22.8059 103.971 21.2208 103.971 19.8407C103.971 18.4605 103.676 17.5263 103.109 16.8875C102.536 16.2366 101.777 15.9171 100.849 15.9171C99.3302 15.9171 97.7873 16.6886 96.1962 18.2435C95.1595 19.2561 93.9903 20.5458 92.6463 22.1249C91.9291 22.9867 91.8628 23.053 91.0371 24.0957H91.6338C92.3269 23.1796 92.2365 23.2821 92.7668 22.6311C93.3515 21.926 93.8336 21.3655 94.2314 20.9677C95.0028 20.1722 95.7502 19.7864 96.4674 19.7864C97.1846 19.7864 97.6004 20.3289 97.6004 21.4197C97.6004 22.1791 97.4136 23.1073 97.0701 24.1982L92.6041 37.9335C91.8568 40.272 91.471 42.2428 91.471 43.864C91.471 45.3165 91.7664 46.3773 92.3329 47.0703C92.9175 47.7514 93.6468 48.0949 94.5388 48.0949C96.0033 48.0949 97.5281 47.2994 99.1252 45.7022C100.307 44.533 101.651 42.9901 103.169 41.1037C103.688 40.4528 104.218 39.7597 104.779 39.0304H104.182C103.772 39.5608 103.386 40.043 103.025 40.4829L103.019 40.4769Z" fill="black"/>
<path d="M66.1647 39.5668C66.2852 39.0605 66.4419 38.488 66.6408 37.8792L72.8244 18.2616L78.1824 1.80205L78.7911 0H77.5556C73.7104 2.08532 70.1364 3.14003 66.8096 3.14003L66.5323 3.9175C67.8341 3.9175 68.8045 3.95969 69.4735 4.0501C69.6181 4.06215 69.7507 4.09229 69.8713 4.11639C70.3233 4.22488 70.6427 4.39363 70.8295 4.63471C71.0827 4.94208 71.149 5.38205 71.0284 5.94858C70.8958 6.50908 70.6849 7.29258 70.3655 8.30511L67.2917 17.1707C67.2375 17.1165 67.1832 17.0803 67.1169 17.0381L67.1049 17.0622C65.3209 16.2908 63.7117 15.9051 62.2351 15.9051H62.211C59.4326 15.9171 56.3468 17.0743 52.9958 19.3886C52.9838 19.3886 52.9838 19.4007 52.9838 19.4007C52.8934 19.467 52.7849 19.5333 52.6885 19.5996C49.2049 22.0586 46.2638 25.1323 43.847 28.8268C41.4241 32.5093 40.2188 36.0893 40.2188 39.5608C40.2188 41.3026 40.5261 42.8033 41.1469 44.093C41.7737 45.3948 42.5693 46.3833 43.5396 47.0583C44.522 47.7514 45.5345 48.0949 46.6013 48.0949C47.5475 48.0949 48.4515 47.8177 49.3254 47.233C49.6569 47.0342 49.9764 46.781 50.2958 46.4857C51.4771 45.4189 52.6523 43.9845 53.8215 42.1885C55.0028 40.3925 56.612 37.7226 58.6491 34.1667L60.7766 30.5385L64.1155 24.9153H64.7122L61.8554 33.7448L60.5114 37.9214C60.2041 38.8677 59.9509 39.7717 59.7822 40.6336C59.7822 40.6336 59.6255 41.5798 59.5953 41.7003V41.7124C59.5049 42.4175 59.4507 43.0925 59.4507 43.7314C59.4507 45.2201 59.746 46.323 60.3125 47.0281C60.8972 47.7333 61.6264 48.0949 62.5063 48.0949C63.9287 48.0949 65.4475 47.2813 67.0687 45.6721C68.3043 44.4486 69.6904 42.8816 71.2454 40.953C71.7215 40.3443 72.2398 39.6873 72.7642 39.0123H72.1675C70.703 40.8746 69.6302 42.1403 68.9371 42.8274C68.256 43.5084 67.6232 43.8519 67.0506 43.8519C66.2008 43.8519 65.785 43.2553 65.785 42.0439C65.785 41.4593 65.8935 40.6999 66.1165 39.7536C66.1285 39.6873 66.1406 39.621 66.1707 39.5547L66.1647 39.5668ZM60.1136 30.2552C57.9861 33.8472 56.3649 36.5051 55.2318 38.2589C54.0867 40.0128 53.0923 41.3327 52.2003 42.1945C51.3083 43.0564 50.4706 43.4964 49.675 43.4964C48.783 43.4964 48.0116 43.0564 47.3727 42.1945C46.7339 41.3327 46.4024 39.9706 46.4024 38.1143C46.4024 34.9381 47.1316 31.6775 48.5721 28.3808C50.0065 25.072 51.8025 22.3418 53.93 20.2023C56.0575 18.0748 58.0946 16.9959 60.0474 16.9959C61.0297 16.9959 61.9338 17.2491 62.7896 17.7553C63.6032 18.2495 64.664 19.033 65.9839 20.0938C66.0261 20.1179 66.0743 20.1601 66.1165 20.2023L65.9718 20.4433L60.1197 30.2552H60.1136Z" fill="black"/>
<path d="M81.1287 7.10574H81.1347H83.2321C86.0226 7.10574 87.5896 9.14888 86.7337 11.6681L86.0889 13.5666C86.0648 13.651 86.113 13.7173 86.2034 13.7173C86.2938 13.7173 86.3902 13.651 86.4203 13.5666L87.0652 11.6681C87.921 9.14888 90.8742 7.10574 93.6647 7.10574H99.6495C102.163 7.10574 103.537 8.94396 102.717 11.2161L101.867 13.5666C101.837 13.651 101.885 13.7173 101.976 13.7173C102.066 13.7173 102.163 13.651 102.193 13.5666L103.043 11.2161C103.862 8.94396 106.562 7.10574 109.082 7.10574H111.667C111.758 7.10574 111.86 7.03945 111.89 6.95507C111.92 6.87069 111.872 6.8044 111.782 6.8044H109.178C106.671 6.8044 105.297 4.96618 106.116 2.70608L106.966 0.355584C106.996 0.271207 106.948 0.20491 106.852 0.20491C106.755 0.20491 106.659 0.271207 106.629 0.355584L105.779 2.70608C104.959 4.97221 102.265 6.8044 99.7579 6.8044H93.7431C90.9586 6.8044 89.3916 4.76729 90.2474 2.25406L90.8923 0.355584C90.9225 0.271207 90.8682 0.20491 90.7778 0.20491C90.6874 0.20491 90.585 0.271207 90.5608 0.355584L89.916 2.25406C89.0601 4.76729 86.113 6.8044 83.3285 6.8044H81.2131C81.1227 6.81042 81.0323 6.87672 81.0082 6.95507C80.9841 7.03342 81.0323 7.09972 81.1166 7.10574H81.1287Z" fill="black"/>
<path d="M41.1111 25.9098C42.0452 23.71 42.5997 21.8115 42.7745 20.2204C42.9252 18.8884 42.7745 17.8458 42.3406 17.0804C42.2441 16.9056 42.1296 16.7549 41.991 16.6223C41.5571 16.1763 40.9604 15.9533 40.1889 15.9533C39.297 15.9533 38.5255 16.2004 37.9047 16.7007C37.2719 17.1949 36.9103 17.8578 36.8259 18.6534C36.7657 19.1898 36.9103 20.1059 37.284 21.4378C37.284 21.4619 37.296 21.474 37.3081 21.4981C37.6215 22.378 37.8445 23.2098 37.9891 23.9933C38.1277 24.8009 38.1518 25.7049 38.0253 26.6993C37.953 27.4045 37.7119 28.3628 37.3442 29.5441C36.5848 31.545 34.8491 34.5645 32.1249 38.6266C31.8115 39.0847 31.5041 39.5488 31.1907 39.9948C30.0095 41.6944 28.8041 43.3638 27.5505 45.0031C27.4902 45.0996 27.4119 45.19 27.3395 45.2864C27.3395 45.2502 27.3516 45.2261 27.3516 45.19C27.4239 44.7681 27.4902 44.3703 27.5384 44.0087C27.7132 42.8877 27.8337 41.9836 27.9241 41.3026C28.4847 36.5594 28.6172 32.2622 28.346 28.423C28.0628 24.5718 27.3516 21.5524 26.2125 19.3405C25.6882 18.2978 25.0553 17.5023 24.3502 16.9659C23.7053 16.321 22.9338 15.9835 22.0539 15.9353C21.9936 15.9232 21.9032 15.9232 21.8309 15.9232C21.4934 15.9232 21.1499 16.0257 20.7762 16.098C17.7386 16.6946 15.3761 21.3052 14.014 23.7281H14.4841C15.8823 21.3595 16.8406 19.4309 18.721 19.5152C21.4211 19.6358 22.4396 22.0466 23.2231 27.0308C24.0066 32.0874 23.856 39.2173 22.741 48.4204L22.6566 49.0894L22.3191 51.4761C19.7215 54.4594 17.6121 56.4543 15.9848 57.4608C14.7191 58.3166 13.2908 58.7385 11.6876 58.7385C11.1512 58.7385 10.4581 58.6903 9.60228 58.5999C8.64399 58.5035 7.90268 58.4492 7.36628 58.4492C5.47985 58.4492 4.26242 59.2327 3.72602 60.7997C3.4307 61.9931 3.55124 62.8489 4.1238 63.3732C4.6843 63.8976 5.52807 64.1567 6.64305 64.1567C9.88554 64.1567 14.3455 61.3482 19.9746 55.7492C25.5797 50.1622 30.6845 43.7736 35.2891 36.6076L35.735 35.9025C38.0856 32.1658 39.8454 28.9112 41.0387 26.1268C41.0749 26.0665 41.099 25.9882 41.1111 25.9279V25.9098Z" fill="black"/>
<path d="M7.60599 45.6848C8.37743 44.9133 9.21518 44.0213 10.1072 42.9847C10.6375 42.3579 11.198 41.6829 11.7826 40.9657C12.0358 40.6463 12.2889 40.3148 12.5541 39.9833C12.7952 39.6759 13.0302 39.3565 13.2834 39.025H12.6987C11.5958 40.4233 10.7159 41.484 10.0529 42.2193C9.84198 42.4604 9.64309 42.6713 9.46831 42.8461C9.46831 42.8461 9.46429 42.8541 9.45625 42.8702C9.13683 43.2017 8.8174 43.4548 8.49797 43.6175C8.17854 43.7803 7.87117 43.8707 7.58188 43.8707C7.37093 43.8707 7.17205 43.8285 7.00932 43.7622C6.53319 43.5331 6.29211 42.9666 6.29211 42.0626C6.29211 41.1585 6.58743 39.7362 7.15397 37.8859L17.2069 6.67847L18.7257 1.80871L19.3404 0.0126801H18.1049C14.2597 2.098 10.6857 3.15271 7.35888 3.15271L7.08164 3.92416C8.38346 3.92416 9.3538 3.96635 10.0228 4.05675C10.1674 4.06881 10.3 4.09894 10.4206 4.12305C10.4326 4.12305 10.4447 4.13511 10.4628 4.13511C10.8907 4.24359 11.192 4.41234 11.3788 4.64137C11.632 4.94874 11.6983 5.3887 11.5777 5.95523C11.4451 6.51574 11.2342 7.29924 10.9148 8.31177L2.40474 33.7635L1.42236 36.8372L1.06074 37.9402C1.06074 37.9402 1.04868 37.9823 1.04868 38.0065C0.608719 39.471 0.301345 40.7728 0.132591 41.9179C0.0904024 42.2132 0.0542422 42.4905 0.0421883 42.7677C0.0180806 43.0992 0 43.4307 0 43.7501C0 45.2388 0.29532 46.3417 0.861851 47.0468C0.940201 47.1373 1.0065 47.2216 1.09087 47.3C1.16922 47.3663 1.24757 47.4446 1.33195 47.5109C1.57303 47.7098 1.83821 47.8545 2.11545 47.9629C2.41077 48.0533 2.7302 48.1076 3.06168 48.1076C3.4233 48.1076 3.77889 48.0533 4.15255 47.9629C5.25548 47.6556 6.4006 46.8962 7.62407 45.6908L7.60599 45.6848Z" fill="black"/>
</svg>
