<svg width="30" height="32" viewBox="0 0 30 32" fill="none" xmlns="http://www.w3.org/2000/svg">
<path d="M26.2503 28.3077L20.8215 22.9625M20.8215 22.9625C21.7501 22.0482 22.4867 20.9627 22.9893 19.7681C23.4919 18.5735 23.7505 17.2931 23.7505 16C23.7505 14.707 23.4919 13.4266 22.9893 12.232C22.4867 11.0374 21.7501 9.9519 20.8215 9.03758C19.8929 8.12326 18.7905 7.39797 17.5772 6.90315C16.3639 6.40832 15.0635 6.15363 13.7503 6.15363C12.437 6.15363 11.1366 6.40832 9.92333 6.90315C8.71004 7.39797 7.60762 8.12326 6.67901 9.03758C4.8036 10.8841 3.75 13.3886 3.75 16C3.75 18.6115 4.8036 21.1159 6.67901 22.9625C8.55442 24.8091 11.098 25.8464 13.7503 25.8464C16.4025 25.8464 18.9461 24.8091 20.8215 22.9625Z" stroke="black" stroke-linecap="round" stroke-linejoin="round"/>
</svg>
